<svg width="168" height="50" viewBox="0 0 168 50" xmlns="http://www.w3.org/2000/svg">
<g clip-path="url(#clip0_1341_3022)">
<rect width="168" height="50"/>
<rect x="0.5" y="0.5" width="167" height="49" stroke="white" stroke-opacity="0.5"/>
<path d="M37.4928 24.7293C37.4567 20.7005 40.7768 18.7405 40.9287 18.6493C39.0483 15.8955 36.1338 15.5193 35.1096 15.4893C32.6618 15.2305 30.2874 16.9605 29.0405 16.9605C27.7687 16.9605 25.8485 15.5143 23.779 15.5568C21.1159 15.598 18.6245 17.1468 17.2581 19.5518C14.4382 24.4555 16.5413 31.6618 19.243 35.6255C20.5944 37.5668 22.1736 39.7343 24.2407 39.658C26.2629 39.5743 27.0183 38.363 29.4586 38.363C31.8766 38.363 32.5859 39.658 34.694 39.6093C36.8643 39.5743 38.2307 37.6593 39.5349 35.7005C41.0967 33.4755 41.7239 31.2843 41.7488 31.1718C41.6977 31.1543 37.5338 29.558 37.4928 24.7293Z" fill="white"/>
<path d="M33.5106 12.8827C34.5983 11.5165 35.3425 9.65773 35.1359 7.77148C33.5617 7.84148 31.593 8.86523 30.4593 10.2015C29.4562 11.379 28.5602 13.309 28.7917 15.124C30.5601 15.2565 32.3757 14.2277 33.5106 12.8827Z" fill="white"/>
<path d="M66.7587 39.3811H63.9325L62.3845 34.4948H57.0035L55.5288 39.3811H52.7773L58.1085 22.7461H61.4013L66.7587 39.3811ZM61.9178 32.4448L60.5178 28.1011C60.3697 27.6573 60.0922 26.6123 59.6828 24.9673H59.633C59.47 25.6748 59.2074 26.7198 58.8465 28.1011L57.4714 32.4448H61.9178Z" fill="white"/>
<path d="M80.4687 33.2349C80.4687 35.2749 79.9199 36.8874 78.8223 38.0712C77.8391 39.1249 76.6183 39.6512 75.1611 39.6512C73.5881 39.6512 72.4582 39.0837 71.77 37.9487H71.7202V44.2674H69.0671V31.3337C69.0671 30.0512 69.0335 28.7349 68.9688 27.3849H71.3021L71.4502 29.2862H71.5C72.3848 27.8537 73.7275 27.1387 75.5295 27.1387C76.9382 27.1387 78.1142 27.6974 79.055 28.8162C79.9983 29.9362 80.4687 31.4087 80.4687 33.2349ZM77.7657 33.3324C77.7657 32.1649 77.5044 31.2024 76.9792 30.4449C76.4056 29.6549 75.6352 29.2599 74.6695 29.2599C74.015 29.2599 73.4201 29.4799 72.8887 29.9137C72.3561 30.3512 72.0077 30.9224 71.8447 31.6299C71.7625 31.9599 71.7215 32.2299 71.7215 32.4424V34.4424C71.7215 35.3149 71.9878 36.0512 72.5204 36.6524C73.053 37.2537 73.7449 37.5537 74.5961 37.5537C75.5954 37.5537 76.3732 37.1662 76.9295 36.3937C77.487 35.6199 77.7657 34.5999 77.7657 33.3324Z" fill="white"/>
<path d="M94.2037 33.2349C94.2037 35.2749 93.6549 36.8874 92.5561 38.0712C91.5742 39.1249 90.3534 39.6512 88.8962 39.6512C87.3232 39.6512 86.1933 39.0837 85.5063 37.9487H85.4565V44.2674H82.8034V31.3337C82.8034 30.0512 82.7698 28.7349 82.7051 27.3849H85.0384L85.1865 29.2862H85.2363C86.1198 27.8537 87.4626 27.1387 89.2658 27.1387C90.6733 27.1387 91.8493 27.6974 92.7925 28.8162C93.7321 29.9362 94.2037 31.4087 94.2037 33.2349ZM91.5008 33.3324C91.5008 32.1649 91.2382 31.2024 90.7131 30.4449C90.1394 29.6549 89.3716 29.2599 88.4046 29.2599C87.7488 29.2599 87.1552 29.4799 86.6226 29.9137C86.09 30.3512 85.7428 30.9224 85.5797 31.6299C85.4989 31.9599 85.4565 32.2299 85.4565 32.4424V34.4424C85.4565 35.3149 85.7229 36.0512 86.253 36.6524C86.7856 37.2524 87.4775 37.5537 88.3312 37.5537C89.3305 37.5537 90.1083 37.1662 90.6645 36.3937C91.2221 35.6199 91.5008 34.5999 91.5008 33.3324Z" fill="white"/>
<path d="M109.56 34.7157C109.56 36.1307 109.071 37.282 108.089 38.1707C107.01 39.142 105.508 39.627 103.578 39.627C101.796 39.627 100.368 39.282 99.2861 38.5907L99.9009 36.3695C101.066 37.077 102.344 37.432 103.736 37.432C104.736 37.432 105.513 37.2045 106.072 36.752C106.628 36.2995 106.906 35.692 106.906 34.9345C106.906 34.2595 106.677 33.6907 106.218 33.2295C105.761 32.7682 104.998 32.3395 103.933 31.9432C101.033 30.857 99.5848 29.2657 99.5848 27.1732C99.5848 25.8057 100.093 24.6845 101.109 23.812C102.122 22.9382 103.474 22.502 105.164 22.502C106.671 22.502 107.923 22.7657 108.922 23.292L108.259 25.4645C107.325 24.9545 106.27 24.6995 105.089 24.6995C104.156 24.6995 103.426 24.9307 102.904 25.3907C102.462 25.802 102.24 26.3032 102.24 26.897C102.24 27.5545 102.493 28.0982 103.001 28.5257C103.443 28.9207 104.245 29.3482 105.41 29.8095C106.835 30.3857 107.882 31.0595 108.555 31.832C109.226 32.602 109.56 33.5657 109.56 34.7157Z" fill="white"/>
<path d="M118.332 29.3852H115.408V35.209C115.408 36.6902 115.923 37.4302 116.956 37.4302C117.43 37.4302 117.823 37.389 118.134 37.3065L118.208 39.3302C117.685 39.5265 116.997 39.6252 116.144 39.6252C115.097 39.6252 114.278 39.304 113.687 38.6627C113.098 38.0202 112.802 36.9427 112.802 35.429V29.3827H111.06V27.3827H112.802V25.1865L115.408 24.3965V27.3827H118.332V29.3852Z" fill="white"/>
<path d="M131.527 33.2844C131.527 35.1281 131.001 36.6419 129.954 37.8256C128.855 39.0444 127.396 39.6519 125.578 39.6519C123.826 39.6519 122.431 39.0681 121.391 37.9006C120.35 36.7331 119.83 35.2594 119.83 33.4831C119.83 31.6244 120.365 30.1019 121.439 28.9181C122.511 27.7331 123.957 27.1406 125.775 27.1406C127.527 27.1406 128.937 27.7244 130.001 28.8931C131.019 30.0269 131.527 31.4906 131.527 33.2844ZM128.774 33.3706C128.774 32.2644 128.539 31.3156 128.062 30.5244C127.506 29.5669 126.711 29.0894 125.68 29.0894C124.614 29.0894 123.804 29.5681 123.247 30.5244C122.771 31.3169 122.536 32.2806 122.536 33.4206C122.536 34.5269 122.771 35.4756 123.247 36.2656C123.821 37.2231 124.622 37.7006 125.657 37.7006C126.67 37.7006 127.465 37.2131 128.038 36.2406C128.528 35.4344 128.774 34.4756 128.774 33.3706Z" fill="white"/>
<path d="M140.151 29.7287C139.888 29.6799 139.608 29.6549 139.314 29.6549C138.381 29.6549 137.659 30.0087 137.152 30.7174C136.71 31.3424 136.488 32.1324 136.488 33.0862V39.3799H133.836L133.861 31.1624C133.861 29.7799 133.828 28.5212 133.762 27.3862H136.073L136.17 29.6812H136.243C136.523 28.8924 136.965 28.2574 137.57 27.7812C138.161 27.3524 138.799 27.1387 139.487 27.1387C139.733 27.1387 139.954 27.1562 140.151 27.1874V29.7287Z" fill="white"/>
<path d="M152.017 32.8159C152.017 33.2934 151.986 33.6959 151.92 34.0247H143.96C143.991 35.2097 144.376 36.1159 145.115 36.7409C145.786 37.2997 146.653 37.5797 147.719 37.5797C148.897 37.5797 149.972 37.3909 150.939 37.0122L151.355 38.8622C150.225 39.3572 148.891 39.6034 147.351 39.6034C145.5 39.6034 144.046 39.0559 142.988 37.9622C141.933 36.8684 141.404 35.3997 141.404 33.5572C141.404 31.7484 141.896 30.2422 142.88 29.0409C143.911 27.7584 145.303 27.1172 147.055 27.1172C148.776 27.1172 150.079 27.7584 150.964 29.0409C151.665 30.0597 152.017 31.3197 152.017 32.8159ZM149.487 32.1247C149.504 31.3347 149.331 30.6522 148.972 30.0759C148.513 29.3347 147.807 28.9647 146.857 28.9647C145.99 28.9647 145.284 29.3259 144.746 30.0509C144.304 30.6272 144.041 31.3184 143.96 32.1234L149.487 32.1247Z" fill="white"/>
<path d="M117.827 17.4992H115.4V11.168H117.709C118.223 11.168 118.642 11.2367 118.966 11.3742C119.293 11.5076 119.534 11.6888 119.688 11.918C119.841 12.143 119.918 12.3951 119.918 12.6742C119.918 12.8576 119.882 13.0471 119.812 13.243C119.741 13.4388 119.615 13.6221 119.432 13.793C119.254 13.9555 119.003 14.0805 118.679 14.168C119.14 14.2471 119.505 14.4096 119.775 14.6555C120.048 14.8971 120.185 15.2346 120.185 15.668C120.185 16.0805 120.08 16.4221 119.868 16.693C119.656 16.9638 119.372 17.1659 119.016 17.2992C118.659 17.4326 118.263 17.4992 117.827 17.4992ZM117.821 16.7242C118.232 16.7242 118.557 16.6284 118.798 16.4367C119.042 16.2451 119.165 15.9784 119.165 15.6367C119.165 15.4326 119.121 15.2534 119.034 15.0992C118.951 14.9451 118.81 14.8263 118.611 14.743C118.416 14.6555 118.155 14.6117 117.827 14.6117H116.458V16.7242H117.821ZM117.671 13.9055C118.041 13.9055 118.343 13.8076 118.58 13.6117C118.821 13.4159 118.941 13.1555 118.941 12.8305C118.941 12.6721 118.901 12.5242 118.823 12.3867C118.744 12.2451 118.611 12.1305 118.424 12.043C118.242 11.9555 117.993 11.9117 117.678 11.9117H116.458V13.9055H117.671Z" fill="white"/>
<path d="M107.812 17.5871C106.891 17.5871 106.159 17.2934 105.616 16.7059C105.072 16.1184 104.801 15.3246 104.801 14.3246C104.801 13.3288 105.072 12.5371 105.616 11.9496C106.159 11.3621 106.891 11.0684 107.812 11.0684C108.733 11.0684 109.463 11.3621 110.003 11.9496C110.542 12.5371 110.811 13.3288 110.811 14.3246C110.811 15.3246 110.542 16.1184 110.003 16.7059C109.463 17.2934 108.733 17.5871 107.812 17.5871ZM107.812 16.7184C108.248 16.7184 108.6 16.6204 108.87 16.4246C109.144 16.2246 109.345 15.9454 109.474 15.5871C109.602 15.2288 109.667 14.81 109.667 14.3309C109.667 13.8559 109.602 13.4392 109.474 13.0809C109.345 12.7184 109.144 12.4371 108.87 12.2371C108.6 12.0371 108.248 11.9371 107.812 11.9371C107.373 11.9371 107.016 12.0371 106.742 12.2371C106.468 12.4371 106.267 12.7184 106.139 13.0809C106.01 13.4392 105.946 13.8559 105.946 14.3309C105.946 14.81 106.01 15.2288 106.139 15.5871C106.267 15.9454 106.468 16.2246 106.742 16.4246C107.02 16.6204 107.377 16.7184 107.812 16.7184Z" fill="white"/>
<path d="M103.395 17.4988H102.281V14.5363H99.257V17.4988H98.1494V11.1738H99.257V13.6988H102.281V11.1738H103.395V17.4988Z" fill="white"/>
<path d="M96.383 17.4988H95.2693V12.0113H92.2453V17.4988H91.1377V11.1738H96.383V17.4988Z" fill="white"/>
<path d="M86.2389 19.6426H85.4176L86.5687 17.1301L83.9678 11.1738H84.926C85.1002 11.1738 85.2143 11.2488 85.2682 11.3988L86.9544 15.3988C87.025 15.5822 87.081 15.7655 87.1224 15.9488C87.1764 15.7572 87.2407 15.5717 87.3153 15.3926L88.9456 11.3988C89.0244 11.2488 89.1343 11.1738 89.2753 11.1738H90.1527L86.6371 19.3676C86.6039 19.4551 86.5562 19.5217 86.494 19.5676C86.4318 19.6176 86.3467 19.6426 86.2389 19.6426Z" fill="white"/>
<path d="M81.238 17.4988H80.1304V12.0113H77.71V11.1738H83.6584V12.0113H81.238V17.4988Z" fill="white"/>
<path d="M74.9034 17.5871C74.3932 17.5871 73.9265 17.4642 73.5034 17.2184C73.0844 16.9684 72.7484 16.6017 72.4954 16.1184C72.2465 15.6309 72.1221 15.0329 72.1221 14.3246C72.1221 13.7121 72.232 13.16 72.4518 12.6684C72.6758 12.1767 73.0077 11.7871 73.4474 11.4996C73.8871 11.2121 74.4347 11.0684 75.0901 11.0684C75.928 11.0684 76.6187 11.3413 77.1621 11.8871L76.8696 12.2934C76.8364 12.3392 76.8033 12.3746 76.7701 12.3996C76.7369 12.4204 76.6913 12.4309 76.6332 12.4309C76.5502 12.4309 76.4527 12.385 76.3407 12.2934C76.2287 12.2142 76.0815 12.135 75.899 12.0559C75.7123 11.9725 75.4655 11.9309 75.1585 11.9309C74.723 11.9309 74.3641 12.0329 74.0821 12.2371C73.8041 12.4413 73.5967 12.7225 73.4598 13.0809C73.3271 13.4392 73.2607 13.8538 73.2607 14.3246C73.2607 14.8621 73.3396 15.3079 73.4972 15.6621C73.6548 16.0163 73.8705 16.2829 74.1443 16.4621C74.4222 16.6371 74.7396 16.7246 75.0963 16.7246C75.3327 16.7246 75.5318 16.6996 75.6936 16.6496C75.8596 16.5996 75.9964 16.5413 76.1043 16.4746C76.2163 16.4038 76.3096 16.335 76.3843 16.2684C76.4465 16.2184 76.5025 16.1788 76.5523 16.1496C76.6062 16.1163 76.6581 16.0996 76.7078 16.0996C76.8033 16.0996 76.8738 16.135 76.9194 16.2059L77.2367 16.6121C76.9381 16.9579 76.5834 17.2079 76.1727 17.3621C75.7621 17.5121 75.339 17.5871 74.9034 17.5871Z" fill="white"/>
<path d="M68.0731 17.5871C67.1522 17.5871 66.42 17.2934 65.8766 16.7059C65.3332 16.1184 65.0615 15.3246 65.0615 14.3246C65.0615 13.3288 65.3332 12.5371 65.8766 11.9496C66.42 11.3621 67.1522 11.0684 68.0731 11.0684C68.994 11.0684 69.724 11.3621 70.2633 11.9496C70.8026 12.5371 71.0722 13.3288 71.0722 14.3246C71.0722 15.3246 70.8026 16.1184 70.2633 16.7059C69.724 17.2934 68.994 17.5871 68.0731 17.5871ZM68.0731 16.7184C68.5086 16.7184 68.8612 16.6204 69.1309 16.4246C69.4046 16.2246 69.6058 15.9454 69.7344 15.5871C69.863 15.2288 69.9273 14.81 69.9273 14.3309C69.9273 13.8559 69.863 13.4392 69.7344 13.0809C69.6058 12.7184 69.4046 12.4371 69.1309 12.2371C68.8612 12.0371 68.5086 11.9371 68.0731 11.9371C67.6334 11.9371 67.2766 12.0371 67.0029 12.2371C66.7291 12.4371 66.5279 12.7184 66.3993 13.0809C66.2707 13.4392 66.2064 13.8559 66.2064 14.3309C66.2064 14.81 66.2707 15.2288 66.3993 15.5871C66.5279 15.9454 66.7291 16.2246 67.0029 16.4246C67.2808 16.6204 67.6375 16.7184 68.0731 16.7184Z" fill="white"/>
<path d="M63.8588 19.6805H63.137V17.4992H55.9503V19.3242C55.9503 19.5409 55.8217 19.6596 55.5646 19.6805H54.8428V16.5492H55.7512C56.0167 16.4451 56.2697 16.143 56.5103 15.643C56.7468 15.1471 56.9521 14.3367 57.1263 13.2117C57.2964 12.0826 57.4167 10.5263 57.4872 8.54297H62.7823V16.5492H64.2446V19.3242C64.2446 19.5409 64.116 19.6596 63.8588 19.6805ZM61.569 16.5492V9.49297H58.6197C58.516 11.5138 58.3376 13.0805 58.0846 14.193C57.8315 15.3055 57.5266 16.0909 57.1699 16.5492H61.569Z" fill="white"/>
</g>
<defs>
<clipPath id="clip0_1341_3022">
<rect width="168" height="50" fill="white"/>
</clipPath>
</defs>
</svg>
