<svg width="24" height="24" viewBox="0 0 24 24" fill="none" xmlns="http://www.w3.org/2000/svg">
<path d="M17.1227 16.1951L8.05762 16.1951" stroke="#626970" stroke-miterlimit="10"/>
<path d="M20.0865 18.3818C21.2406 17.9207 21.8023 16.6113 21.3412 15.4573C20.8801 14.3033 19.5707 13.7416 18.4167 14.2027C17.2627 14.6638 16.701 15.9731 17.1621 17.1271C17.6232 18.2812 18.9325 18.8429 20.0865 18.3818Z" stroke="#626970" stroke-miterlimit="10"/>
<path d="M6.82871 18.382C7.98274 17.9209 8.54446 16.6116 8.08335 15.4576C7.62224 14.3035 6.31291 13.7418 5.15889 14.2029C4.00486 14.664 3.44314 15.9734 3.90425 17.1274C4.36536 18.2814 5.67469 18.8431 6.82871 18.382Z" stroke="#626970" stroke-miterlimit="10"/>
<path d="M22 12.0437C21.7239 12.0437 21.5 12.2676 21.5 12.5437C21.5 12.8198 21.7239 13.0437 22 13.0437V12.0437ZM23.5 12.0437H22V13.0437H23.5V12.0437Z" fill="#626970"/>
<path d="M21.5 16.5437H22.9999C23.2763 16.5437 23.4998 16.3197 23.4998 16.0439V11.9267C23.4998 11.4225 23.1245 10.997 22.6237 10.9345L19.4997 10.5438L16.0963 6.7149C15.7166 6.2881 15.1727 6.04346 14.6016 6.04346H3.74978L1.00684 10.5438L1.4925 15.5431C1.4925 16.0953 1.93998 16.5433 2.49263 16.5433H3.52491" stroke="#626970" stroke-linejoin="round"/>
<path d="M2.5 5.54346C2.22386 5.54346 2 5.76731 2 6.04346C2 6.3196 2.22386 6.54346 2.5 6.54346V5.54346ZM13.9999 5.54346H2.5V6.54346H13.9999V5.54346Z" fill="#626970"/>
<path d="M19.1371 10.1518L7.0504 10.1518L3.02148 7.88452" stroke="#626970" stroke-linejoin="round"/>
<path d="M11.4922 16.5437V6.04346" stroke="#626970" stroke-linejoin="round"/>
</svg>
