<svg width="24" height="24" viewBox="0 0 24 24" fill="none" xmlns="http://www.w3.org/2000/svg">
<path d="M8.57143 6.81092V5.34034C8.57143 4.87623 8.18767 4.5 7.71429 4.5H6.85714C6.38376 4.5 6 4.87623 6 5.34034V8.28151C6 8.74562 6.38376 9.12185 6.85714 9.12185H7.71429C8.18767 9.12185 8.57143 8.74562 8.57143 8.28151V6.81092ZM8.57143 6.81092H12M15.4286 6.81092V8.28151C15.4286 8.74562 15.8123 9.12185 16.2857 9.12185H17.1429C17.6162 9.12185 18 8.74562 18 8.28151V5.34034C18 4.87623 17.6162 4.5 17.1429 4.5H16.2857C15.8123 4.5 15.4286 4.87623 15.4286 5.34034V6.81092ZM15.4286 6.81092H12M8.57143 17.1891V15.7185C8.57143 15.2544 8.18767 14.8782 7.71429 14.8782H6.85714C6.38376 14.8782 6 15.2544 6 15.7185V18.6597C6 19.1238 6.38376 19.5 6.85714 19.5H7.71429C8.18767 19.5 8.57143 19.1238 8.57143 18.6597V17.1891ZM8.57143 17.1891H12M15.4286 17.1891V18.6597C15.4286 19.1238 15.8123 19.5 16.2857 19.5H17.1429C17.6162 19.5 18 19.1238 18 18.6597V15.7185C18 15.2544 17.6162 14.8782 17.1429 14.8782H16.2857C15.8123 14.8782 15.4286 15.2544 15.4286 15.7185V17.1891ZM15.4286 17.1891H12M12 17.1891V6.81092" stroke="#626970"/>
</svg>
