<svg width="24" height="24" viewBox="0 0 24 24" fill="none" xmlns="http://www.w3.org/2000/svg">
<path d="M15.988 8.31891V6.93891C15.988 6.52491 15.643 6.17993 15.229 6.17993H7.29402C6.88002 6.17993 6.53504 6.52491 6.53504 6.93891V7.42197C6.53504 7.83597 6.19002 8.24993 5.77602 8.24993H4.25801C3.84401 8.24993 3.49902 8.3189 3.49902 8.7329V14.3909C3.49902 14.8049 3.84401 15.1499 4.25801 15.1499H6.32801L9.15703 18.5999H17.092C17.506 18.5999 17.851 18.2549 17.851 17.8409V15.8399H20.197V17.2199H21.232C21.646 17.2199 21.991 16.8749 21.991 16.4609V10.9409C21.991 10.5269 21.646 10.2509 21.232 10.2509H20.197V11.6999H17.851V9.83697C17.851 9.42297 17.506 9.0779 17.092 9.0779H16.747C16.333 9.1469 15.988 8.73292 15.988 8.31891Z" stroke="#626970" stroke-linecap="round" stroke-linejoin="round"/>
<path d="M11.0898 6.18005V4.80005" stroke="#626970" stroke-linecap="round" stroke-linejoin="round"/>
<path d="M8.05371 4.80005H14.0567" stroke="#626970" stroke-linecap="round" stroke-linejoin="round"/>
<path d="M3.56848 11.7H2.18848" stroke="#626970" stroke-linecap="round" stroke-linejoin="round"/>
<path d="M2.18848 15.15V8.25" stroke="#626970" stroke-linecap="round" stroke-linejoin="round"/>
</svg>
