<svg width="168" height="50" viewBox="0 0 168 50"  xmlns="http://www.w3.org/2000/svg">
<g clip-path="url(#clip0_1341_3048)">
<rect width="168" height="50"/>
<rect x="0.5" y="0.5" width="167" height="49" stroke="white" stroke-opacity="0.5"/>
<path d="M87.4218 30.5246C84.5873 30.5246 82.2743 32.6255 82.2743 35.5215C82.2743 38.4176 84.5848 40.516 87.4218 40.516C90.2588 40.516 92.5692 38.3955 92.5692 35.5215C92.5692 32.6476 90.2588 30.5246 87.4218 30.5246ZM87.4218 38.5477C85.8672 38.5477 84.5268 37.2984 84.5268 35.5215C84.5268 33.7446 85.8672 32.4929 87.4218 32.4929C88.9763 32.4929 90.3142 33.7225 90.3142 35.5215C90.3142 37.3205 88.9738 38.5477 87.4218 38.5477ZM76.1921 30.5246C73.3577 30.5246 71.0447 32.6255 71.0447 35.5215C71.0447 38.4176 73.3551 40.516 76.1921 40.516C79.0292 40.516 81.3396 38.3955 81.3396 35.5215C81.3396 32.6476 79.0266 30.5246 76.1921 30.5246ZM76.1921 38.5477C74.6401 38.5477 73.2997 37.2984 73.2997 35.5215C73.2997 33.7446 74.6401 32.4929 76.1921 32.4929C77.7442 32.4929 79.0871 33.7225 79.0871 35.5215C79.0871 37.3205 77.7467 38.5477 76.1921 38.5477ZM62.836 32.0585V34.1766H68.0414C67.8852 35.3694 67.4796 36.2382 66.8572 36.8444C66.0988 37.5831 64.9147 38.3955 62.836 38.3955C59.6312 38.3955 57.1242 35.8799 57.1242 32.758C57.1242 29.6362 59.6287 27.1205 62.836 27.1205C64.5644 27.1205 65.8267 27.7807 66.759 28.6323L68.2934 27.1377C66.9908 25.9277 65.2624 25 62.836 25C58.447 25 54.7559 28.4826 54.7559 32.758C54.7559 37.0334 58.447 40.516 62.836 40.516C65.2044 40.516 66.9908 39.7576 68.3916 38.3391C69.8278 36.9401 70.2763 34.9718 70.2763 33.3814C70.2763 32.8905 70.2385 32.4365 70.1604 32.0585H62.8386H62.836ZM117.462 33.7029C117.034 32.5862 115.734 30.5246 113.073 30.5246C110.413 30.5246 108.238 32.5494 108.238 35.5215C108.238 38.3219 110.413 40.516 113.325 40.516C115.676 40.516 117.034 39.1171 117.598 38.3022L115.85 37.1659C115.265 37.9979 114.472 38.5477 113.325 38.5477C112.179 38.5477 111.362 38.0372 110.838 37.0358L117.694 34.2723L117.462 33.7054V33.7029ZM110.471 35.3694C110.413 33.4378 112.005 32.4561 113.151 32.4561C114.046 32.4561 114.804 32.8905 115.056 33.5164L110.473 35.3718L110.471 35.3694ZM104.895 40.2117H107.147V25.5301H104.895V40.2117ZM101.204 31.6413H101.126C100.622 31.0547 99.6491 30.5246 98.4271 30.5246C95.8622 30.5246 93.514 32.7187 93.514 35.5387C93.514 38.3587 95.8647 40.5136 98.4271 40.5136C99.6516 40.5136 100.622 39.9834 101.126 39.3772H101.204V40.0963C101.204 42.0082 100.156 43.0292 98.4649 43.0292C97.0867 43.0292 96.2301 42.0647 95.8824 41.2523L93.9197 42.0475C94.4815 43.3728 95.9781 45 98.4649 45C101.105 45 103.34 43.4857 103.34 39.7969V30.8289H101.204V31.6438V31.6413ZM98.6211 38.5477C97.0666 38.5477 95.7665 37.2813 95.7665 35.5412C95.7665 33.8011 97.0666 32.4954 98.6211 32.4954C100.176 32.4954 101.36 33.7814 101.36 35.5412C101.36 37.3009 100.156 38.5477 98.6211 38.5477ZM128.017 25.5326H122.627V40.2141H124.875V34.6527H128.017C130.511 34.6527 132.96 32.893 132.96 30.0926C132.96 27.2923 130.508 25.5326 128.017 25.5326ZM128.075 32.6083H124.875V27.5745H128.075C129.758 27.5745 130.713 28.9318 130.713 30.0902C130.713 31.2486 129.758 32.6058 128.075 32.6058M141.977 30.4976C140.35 30.4976 138.662 31.1971 137.964 32.7433L139.962 33.5557C140.388 32.7433 141.184 32.4782 142.018 32.4782C143.182 32.4782 144.363 33.1581 144.384 34.3656V34.5177C143.975 34.2919 143.104 33.9508 142.038 33.9508C139.886 33.9508 137.694 35.1019 137.694 37.2567C137.694 39.2226 139.46 40.4866 141.436 40.4866C142.95 40.4866 143.781 39.8264 144.306 39.0508H144.384V40.1847H146.555V34.5545C146.555 31.9481 144.56 30.4952 141.98 30.4952M141.708 38.5403C140.97 38.5403 139.942 38.182 139.942 37.2935C139.942 36.1597 141.222 35.7277 142.328 35.7277C143.315 35.7277 143.781 35.9363 144.384 36.2186C144.21 37.5782 143.008 38.5428 141.708 38.5428M154.467 30.8167L151.887 37.1831H151.809L149.133 30.8167H146.709L150.723 39.7135L148.435 44.6613H150.781L156.966 30.8167H154.464H154.467ZM134.205 40.2092H136.455V25.5277H134.205V40.2092Z" fill="white"/>
<path d="M117.827 17.4992H115.4V11.168H117.709C118.223 11.168 118.642 11.2367 118.966 11.3742C119.293 11.5076 119.534 11.6888 119.688 11.918C119.841 12.143 119.918 12.3951 119.918 12.6742C119.918 12.8576 119.882 13.0471 119.812 13.243C119.741 13.4388 119.615 13.6221 119.432 13.793C119.254 13.9555 119.003 14.0805 118.679 14.168C119.14 14.2471 119.505 14.4096 119.775 14.6555C120.048 14.8971 120.185 15.2346 120.185 15.668C120.185 16.0805 120.08 16.4221 119.868 16.693C119.656 16.9638 119.372 17.1659 119.016 17.2992C118.659 17.4326 118.263 17.4992 117.827 17.4992ZM117.821 16.7242C118.232 16.7242 118.557 16.6284 118.798 16.4367C119.042 16.2451 119.165 15.9784 119.165 15.6367C119.165 15.4326 119.121 15.2534 119.034 15.0992C118.951 14.9451 118.81 14.8263 118.611 14.743C118.416 14.6555 118.155 14.6117 117.827 14.6117H116.458V16.7242H117.821ZM117.671 13.9055C118.041 13.9055 118.343 13.8076 118.58 13.6117C118.821 13.4159 118.941 13.1555 118.941 12.8305C118.941 12.6721 118.901 12.5242 118.823 12.3867C118.744 12.2451 118.611 12.1305 118.424 12.043C118.242 11.9555 117.993 11.9117 117.678 11.9117H116.458V13.9055H117.671Z" fill="white"/>
<path d="M107.812 17.5871C106.891 17.5871 106.159 17.2934 105.616 16.7059C105.072 16.1184 104.801 15.3246 104.801 14.3246C104.801 13.3288 105.072 12.5371 105.616 11.9496C106.159 11.3621 106.891 11.0684 107.812 11.0684C108.733 11.0684 109.463 11.3621 110.003 11.9496C110.542 12.5371 110.811 13.3288 110.811 14.3246C110.811 15.3246 110.542 16.1184 110.003 16.7059C109.463 17.2934 108.733 17.5871 107.812 17.5871ZM107.812 16.7184C108.248 16.7184 108.6 16.6204 108.87 16.4246C109.144 16.2246 109.345 15.9454 109.474 15.5871C109.602 15.2288 109.667 14.81 109.667 14.3309C109.667 13.8559 109.602 13.4392 109.474 13.0809C109.345 12.7184 109.144 12.4371 108.87 12.2371C108.6 12.0371 108.248 11.9371 107.812 11.9371C107.373 11.9371 107.016 12.0371 106.742 12.2371C106.468 12.4371 106.267 12.7184 106.139 13.0809C106.01 13.4392 105.946 13.8559 105.946 14.3309C105.946 14.81 106.01 15.2288 106.139 15.5871C106.267 15.9454 106.468 16.2246 106.742 16.4246C107.02 16.6204 107.377 16.7184 107.812 16.7184Z" fill="white"/>
<path d="M103.395 17.4988H102.281V14.5363H99.257V17.4988H98.1494V11.1738H99.257V13.6988H102.281V11.1738H103.395V17.4988Z" fill="white"/>
<path d="M96.383 17.4988H95.2693V12.0113H92.2453V17.4988H91.1377V11.1738H96.383V17.4988Z" fill="white"/>
<path d="M86.2389 19.6426H85.4176L86.5687 17.1301L83.9678 11.1738H84.926C85.1002 11.1738 85.2143 11.2488 85.2682 11.3988L86.9544 15.3988C87.025 15.5822 87.081 15.7655 87.1224 15.9488C87.1764 15.7572 87.2407 15.5717 87.3153 15.3926L88.9456 11.3988C89.0244 11.2488 89.1343 11.1738 89.2753 11.1738H90.1527L86.6371 19.3676C86.6039 19.4551 86.5562 19.5217 86.494 19.5676C86.4318 19.6176 86.3467 19.6426 86.2389 19.6426Z" fill="white"/>
<path d="M81.238 17.4988H80.1304V12.0113H77.71V11.1738H83.6584V12.0113H81.238V17.4988Z" fill="white"/>
<path d="M74.9034 17.5871C74.3932 17.5871 73.9265 17.4642 73.5034 17.2184C73.0844 16.9684 72.7484 16.6017 72.4954 16.1184C72.2465 15.6309 72.1221 15.0329 72.1221 14.3246C72.1221 13.7121 72.232 13.16 72.4518 12.6684C72.6758 12.1767 73.0077 11.7871 73.4474 11.4996C73.8871 11.2121 74.4347 11.0684 75.0901 11.0684C75.928 11.0684 76.6187 11.3413 77.1621 11.8871L76.8696 12.2934C76.8364 12.3392 76.8033 12.3746 76.7701 12.3996C76.7369 12.4204 76.6913 12.4309 76.6332 12.4309C76.5502 12.4309 76.4527 12.385 76.3407 12.2934C76.2287 12.2142 76.0815 12.135 75.899 12.0559C75.7123 11.9725 75.4655 11.9309 75.1585 11.9309C74.723 11.9309 74.3641 12.0329 74.0821 12.2371C73.8041 12.4413 73.5967 12.7225 73.4598 13.0809C73.3271 13.4392 73.2607 13.8538 73.2607 14.3246C73.2607 14.8621 73.3396 15.3079 73.4972 15.6621C73.6548 16.0163 73.8705 16.2829 74.1443 16.4621C74.4222 16.6371 74.7396 16.7246 75.0963 16.7246C75.3327 16.7246 75.5318 16.6996 75.6936 16.6496C75.8596 16.5996 75.9964 16.5413 76.1043 16.4746C76.2163 16.4038 76.3096 16.335 76.3843 16.2684C76.4465 16.2184 76.5025 16.1788 76.5523 16.1496C76.6062 16.1163 76.6581 16.0996 76.7078 16.0996C76.8033 16.0996 76.8738 16.135 76.9194 16.2059L77.2367 16.6121C76.9381 16.9579 76.5834 17.2079 76.1727 17.3621C75.7621 17.5121 75.339 17.5871 74.9034 17.5871Z" fill="white"/>
<path d="M68.0731 17.5871C67.1522 17.5871 66.42 17.2934 65.8766 16.7059C65.3332 16.1184 65.0615 15.3246 65.0615 14.3246C65.0615 13.3288 65.3332 12.5371 65.8766 11.9496C66.42 11.3621 67.1522 11.0684 68.0731 11.0684C68.994 11.0684 69.724 11.3621 70.2633 11.9496C70.8026 12.5371 71.0722 13.3288 71.0722 14.3246C71.0722 15.3246 70.8026 16.1184 70.2633 16.7059C69.724 17.2934 68.994 17.5871 68.0731 17.5871ZM68.0731 16.7184C68.5086 16.7184 68.8612 16.6204 69.1309 16.4246C69.4046 16.2246 69.6058 15.9454 69.7344 15.5871C69.863 15.2288 69.9273 14.81 69.9273 14.3309C69.9273 13.8559 69.863 13.4392 69.7344 13.0809C69.6058 12.7184 69.4046 12.4371 69.1309 12.2371C68.8612 12.0371 68.5086 11.9371 68.0731 11.9371C67.6334 11.9371 67.2766 12.0371 67.0029 12.2371C66.7291 12.4371 66.5279 12.7184 66.3993 13.0809C66.2707 13.4392 66.2064 13.8559 66.2064 14.3309C66.2064 14.81 66.2707 15.2288 66.3993 15.5871C66.5279 15.9454 66.7291 16.2246 67.0029 16.4246C67.2808 16.6204 67.6375 16.7184 68.0731 16.7184Z" fill="white"/>
<path d="M63.8588 19.6805H63.137V17.4992H55.9503V19.3242C55.9503 19.5409 55.8217 19.6596 55.5646 19.6805H54.8428V16.5492H55.7512C56.0167 16.4451 56.2697 16.143 56.5103 15.643C56.7468 15.1471 56.9521 14.3367 57.1263 13.2117C57.2964 12.0826 57.4167 10.5263 57.4872 8.54297H62.7823V16.5492H64.2446V19.3242C64.2446 19.5409 64.116 19.6596 63.8588 19.6805ZM61.569 16.5492V9.49297H58.6197C58.516 11.5138 58.3376 13.0805 58.0846 14.193C57.8315 15.3055 57.5266 16.0909 57.1699 16.5492H61.569Z" fill="white"/>
<g clip-path="url(#clip1_1341_3048)">
<path d="M19.0961 8.35781L37.4697 18.9694L33.5315 22.9252L19.0961 8.35781ZM15.2895 7.5L32.1553 24.375L15.2909 41.25C14.4327 40.8689 13.8447 40.0209 13.8447 39.0352C13.8447 39.0028 13.8447 38.9705 13.8461 38.9395V38.9438V9.80766C13.8447 9.78094 13.8447 9.74859 13.8447 9.71625C13.8447 8.73047 14.4327 7.8825 15.2755 7.50703L15.2909 7.50141L15.2895 7.5ZM43.1803 22.3978C43.7599 22.8295 44.1309 23.5158 44.1309 24.2878C44.1309 24.3188 44.1309 24.3483 44.1295 24.3792V24.375C44.1351 24.4355 44.1393 24.5072 44.1393 24.5789C44.1393 25.3045 43.7893 25.9486 43.2489 26.348L43.2433 26.3522L39.3051 28.5923L35.0407 24.375L39.3065 20.0902L43.1803 22.3978ZM19.0961 40.3922L33.5329 25.8248L37.4711 29.7806L19.0961 40.3922Z" fill="white"/>
</g>
</g>
<defs>
<clipPath id="clip0_1341_3048">
<rect width="168" height="50" fill="white"/>
</clipPath>
<clipPath id="clip1_1341_3048">
<rect width="33.6" height="33.75" fill="white" transform="translate(12.4443 7.5)"/>
</clipPath>
</defs>
</svg>
