<svg width="170" height="50" viewBox="0 0 170 50" fill="none" xmlns="http://www.w3.org/2000/svg">
<path d="M140.017 26.593V16.2791H132.32V33.0465H153.943V26.593H140.017Z" fill="currentColor"/>
<path d="M32.9524 21.2326H23.9983V16.2791H16.3018V33.0465H23.9983V27.6861H32.9524V33.0465H40.6374V16.2791H32.9524V21.2326Z" fill="currentColor"/>
<path d="M64.3792 16.2791H63.9251H55.0176L59.4772 23.9768L64.7169 33.0465H74.0669H74.0785L64.3792 16.2791Z" fill="currentColor"/>
<path d="M45.2598 33.0465H54.2255L59.0111 24.7907L54.5166 17.0233L45.2598 33.0465Z" fill="currentColor"/>
<path d="M117.998 16.2791H117.556H108.648L113.096 23.9768L118.348 33.0465H127.698H127.709L118.01 16.2791H117.998Z" fill="currentColor"/>
<path d="M98.8789 33.0465H107.856L112.63 24.7907L108.147 17.0233L98.8789 33.0465Z" fill="currentColor"/>
<path d="M100.894 16.2791H91.5324L86.2927 25.3489L81.8447 33.0465H90.7406H91.1947H91.2064L100.894 16.2791Z" fill="currentColor"/>
<path d="M81.0409 16.2791H72.0752L81.332 32.3023L85.8266 24.5465L81.0409 16.2791Z" fill="currentColor"/>
</svg>
