<svg width="24" height="24" viewBox="0 0 24 24" fill="none" xmlns="http://www.w3.org/2000/svg">
<path d="M22.2 12.9H19.2M22.2 12.9C22.2 10.1651 21.1237 7.68155 19.3715 5.84995M22.2 12.9C22.2 16.422 20.4149 19.5272 17.7 21.3599M1.80005 12.9H4.80005M1.80005 12.9C1.80005 10.1651 2.87641 7.68155 4.62863 5.84995M1.80005 12.9C1.80005 16.422 3.58519 19.5272 6.30005 21.3599M12 2.84995V5.84995M19.3715 5.84995C17.5145 3.90886 14.8985 2.69995 12 2.69995C9.10165 2.69995 6.4856 3.90886 4.62863 5.84995M19.3715 5.84995L18.15 7.07137M4.62863 5.84995L6.30005 7.07137M16.0002 9.5L12.0002 13" stroke="#626970" stroke-linecap="round" stroke-linejoin="round"/>
</svg>
