<svg width="50" height="50" viewBox="0 0 50 50" xmlns="http://www.w3.org/2000/svg">
<rect width="50" height="50" rx="25"/>
<path fill-rule="evenodd" clip-rule="evenodd" d="M29.8924 22.8378C28.639 24.1014 26.9158 24.8862 25.0057 24.8862C23.0957 24.8862 21.3699 24.0988 20.119 22.8378C18.8655 21.5743 18.087 19.8373 18.087 17.9119C18.087 15.9864 18.8681 14.2468 20.119 12.9859C21.3725 11.7223 23.0957 10.9375 25.0057 10.9375C26.9158 10.9375 28.6416 11.7249 29.8924 12.9859C31.1459 14.2494 31.9244 15.9864 31.9244 17.9119C31.9244 19.8373 31.1433 21.5769 29.8924 22.8378ZM25.0057 14.7229C24.1441 14.7229 23.363 15.0761 22.7868 15.6542C22.2107 16.235 21.863 17.0198 21.863 17.8909C21.863 18.7621 22.2133 19.5469 22.7868 20.1276C23.3604 20.7084 24.1415 21.0589 25.0057 21.0589C25.8699 21.0589 26.6485 20.7058 27.2246 20.1276C27.8007 19.5469 28.1485 18.7621 28.1485 17.8909C28.1485 17.0198 27.7981 16.235 27.2246 15.6542C26.6485 15.0944 25.8699 14.7229 25.0057 14.7229ZM32.2748 24.9071C32.171 24.7423 31.9452 24.7214 31.7817 24.8443C29.8509 26.5003 27.5101 27.5572 24.9849 27.5572C22.4598 27.5572 20.0982 26.482 18.1882 24.8443C18.0454 24.7214 17.8404 24.7397 17.7159 24.9071L15.6838 27.7011C15.58 27.824 15.6216 28.0333 15.7461 28.1353C17.4719 29.5427 19.4416 30.4741 21.5152 30.9711L17.5939 38.5681C17.4901 38.7747 17.6354 39.0442 17.8819 39.0442H22.0706C22.2133 39.0442 22.3379 38.9605 22.3794 38.8375L25.0083 32.5643L27.6165 38.8558C27.6787 38.9788 27.8007 39.0625 27.9253 39.0625H32.1139C32.3604 39.0625 32.5032 38.814 32.402 38.5864L28.4807 30.9685C30.5542 30.4714 32.5473 29.5401 34.2497 28.1327C34.3925 28.0281 34.4132 27.8423 34.312 27.6984L32.28 24.9045L32.2748 24.9071Z" fill="white"/>
</svg>
