<svg width="60" height="60" viewBox="0 0 60 60" fill="none" xmlns="http://www.w3.org/2000/svg">
<path d="M22.5 22.5H22.525M37.5 37.5H37.525M40 20L20 40M44.753 12.4963C45.2677 13.7413 46.2559 14.731 47.5001 15.2477L51.8631 17.0549C53.1082 17.5707 54.0975 18.56 54.6132 19.8051C55.1289 21.0503 55.1289 22.4494 54.6132 23.6945L52.8073 28.0545C52.2913 29.3002 52.2906 30.7007 52.8089 31.9458L54.6117 36.3045C54.8674 36.9212 54.999 37.5823 54.9991 38.2499C54.9992 38.9175 54.8678 39.5786 54.6123 40.1954C54.3568 40.8122 53.9823 41.3726 53.5102 41.8446C53.0381 42.3166 52.4776 42.6909 51.8607 42.9462L47.5009 44.7522C46.2559 45.267 45.2662 46.2551 44.7496 47.4994L42.9424 51.8626C42.4266 53.1077 41.4374 54.097 40.1923 54.6128C38.9472 55.1285 37.5482 55.1285 36.303 54.6128L31.9432 52.8068C30.6981 52.2923 29.2996 52.2933 28.0552 52.8097L23.6922 54.6144C22.4478 55.129 21.05 55.1285 19.8059 54.6132C18.5618 54.0978 17.5731 53.1097 17.057 51.8659L15.2493 47.5015C14.7345 46.2564 13.7464 45.2668 12.5021 44.7501L8.13916 42.9428C6.89459 42.4273 5.90564 41.4386 5.38971 40.1942C4.87377 38.9497 4.87307 37.5513 5.38776 36.3064L7.19366 31.9464C7.70813 30.7012 7.70708 29.3026 7.19074 28.0582L5.38743 23.692C5.13176 23.0752 5.00011 22.4142 5 21.7466C4.99989 21.079 5.13133 20.4179 5.38681 19.8011C5.64228 19.1843 6.01679 18.6239 6.48892 18.1519C6.96105 17.6799 7.52156 17.3055 8.13841 17.0503L12.4982 15.2443C13.7422 14.7299 14.7312 13.743 15.2483 12.5001L17.0555 8.13702C17.5712 6.89186 18.5604 5.90259 19.8056 5.38682C21.0507 4.87106 22.4497 4.87106 23.6948 5.38682L28.0546 7.19279C29.2998 7.70728 30.6983 7.70623 31.9426 7.18987L36.3074 5.38962C37.5524 4.87415 38.9511 4.87425 40.1959 5.38992C41.4408 5.90558 42.4299 6.89457 42.9458 8.13941L44.7535 12.5038L44.753 12.4963ZM23.75 22.5C23.75 23.1904 23.1904 23.75 22.5 23.75C21.8096 23.75 21.25 23.1904 21.25 22.5C21.25 21.8096 21.8096 21.25 22.5 21.25C23.1904 21.25 23.75 21.8096 23.75 22.5ZM38.75 37.5C38.75 38.1904 38.1904 38.75 37.5 38.75C36.8096 38.75 36.25 38.1904 36.25 37.5C36.25 36.8096 36.8096 36.25 37.5 36.25C38.1904 36.25 38.75 36.8096 38.75 37.5Z" stroke="currentColor" stroke-width="1.5" stroke-linecap="round" stroke-linejoin="round"/>
</svg>
