<svg width="50" height="50" viewBox="0 0 50 50" xmlns="http://www.w3.org/2000/svg">
<g clip-path="url(#clip0_1341_3013)">
<rect width="50" height="50" rx="25"/>
<path fill-rule="evenodd" clip-rule="evenodd" d="M11.3166 24.7369C18.6046 21.5616 23.4644 19.4683 25.8961 18.4569C32.8388 15.5692 34.2815 15.0675 35.2218 15.051C35.4286 15.0473 35.891 15.0986 36.1905 15.3416C36.4434 15.5468 36.513 15.8241 36.5463 16.0186C36.5796 16.2132 36.6211 16.6565 36.5881 17.0028C36.2119 20.9559 34.584 30.549 33.7557 34.9765C33.4053 36.85 32.7153 37.4782 32.0472 37.5396C30.5954 37.6732 29.493 36.5802 28.0869 35.6584C25.8865 34.2161 24.6435 33.3182 22.5077 31.9108C20.0394 30.2842 21.6395 29.3902 23.0462 27.9292C23.4143 27.5469 29.8109 21.7286 29.9348 21.2008C29.9502 21.1348 29.9646 20.8887 29.8184 20.7588C29.6723 20.6289 29.4565 20.6733 29.3008 20.7086C29.0801 20.7587 25.5651 23.082 18.7557 27.6786C17.7579 28.3637 16.8542 28.6975 16.0445 28.68C15.1519 28.6607 13.4348 28.1753 12.1584 27.7604C10.5927 27.2515 9.34842 26.9824 9.45677 26.1181C9.51321 25.6679 10.1332 25.2075 11.3166 24.7369Z" fill="white"/>
</g>
<defs>
<clipPath id="clip0_1341_3013">
<rect width="50" height="50" fill="white"/>
</clipPath>
</defs>
</svg>
