<svg width="50" height="50" viewBox="0 0 50 50"  xmlns="http://www.w3.org/2000/svg">
<rect width="50" height="50" rx="25" />
<path d="M26.1863 34.375C17.1109 34.375 11.9344 28.2165 11.7188 17.9688H16.2647C16.4141 25.4903 19.7655 28.6763 22.4201 29.3332V17.9688H26.7006V24.4557C29.322 24.1765 32.0761 21.2204 33.0053 17.9688H37.2858C36.9357 19.6552 36.2378 21.2519 35.2357 22.6592C34.2337 24.0664 32.9491 25.2539 31.4623 26.1472C33.1219 26.9635 34.5878 28.1189 35.7633 29.5372C36.9387 30.9555 37.7969 32.6043 38.2812 34.375H33.5694C33.1345 32.837 32.2508 31.4603 31.0289 30.4174C29.8071 29.3744 28.3014 28.7116 26.7006 28.5121V34.375H26.1863Z" fill="white"/>
</svg>
