<?xml version="1.0" encoding="utf-8"?><svg width="168" height="50" xmlns="http://www.w3.org/2000/svg" viewBox="0 0 168 50"><g clip-path="url(#aclip0_1341_3022)"><path d="M0 0h168v50H0z"/><path stroke="#fff" stroke-opacity=".5" d="M.5.5h167v49H.5z"/><path d="M37.493 24.73c-.036-4.03 3.284-5.99 3.436-6.08-1.88-2.754-4.795-3.13-5.82-3.16-2.447-.26-4.822 1.47-6.069 1.47-1.271 0-3.191-1.446-5.261-1.403-2.663.041-5.154 1.59-6.52 3.995-2.82 4.904-.718 12.11 1.984 16.074 1.351 1.94 2.93 4.108 4.998 4.032 2.022-.084 2.777-1.295 5.218-1.295 2.418 0 3.127 1.295 5.235 1.246 2.17-.035 3.537-1.95 4.84-3.909 1.563-2.225 2.19-4.416 2.215-4.528-.051-.018-4.215-1.614-4.256-6.443zM33.51 12.883c1.088-1.366 1.833-3.225 1.626-5.112-1.574.07-3.543 1.094-4.677 2.43-1.003 1.178-1.899 3.108-1.667 4.923 1.768.133 3.584-.896 4.719-2.241zM66.759 39.381h-2.827l-1.547-4.886h-5.381l-1.475 4.886h-2.752l5.331-16.635h3.293l5.358 16.635zm-4.841-6.936l-1.4-4.344c-.148-.444-.426-1.489-.835-3.134h-.05c-.163.708-.426 1.753-.787 3.134l-1.375 4.344h4.447zM80.469 33.235c0 2.04-.55 3.652-1.647 4.836-.983 1.054-2.204 1.58-3.66 1.58-1.574 0-2.704-.567-3.392-1.702h-.05v6.318h-2.653V31.334c0-1.283-.033-2.6-.098-3.95h2.333l.148 1.902h.05c.885-1.432 2.228-2.147 4.03-2.147 1.408 0 2.584.558 3.525 1.677.943 1.12 1.414 2.593 1.414 4.419zm-2.703.097c0-1.167-.262-2.13-.787-2.887-.573-.79-1.344-1.185-2.31-1.185-.654 0-1.249.22-1.78.654-.533.437-.881 1.008-1.044 1.716a3.5 3.5 0 00-.123.812v2c0 .873.266 1.61.798 2.21.533.602 1.225.902 2.076.902 1 0 1.777-.388 2.334-1.16.557-.774.836-1.794.836-3.062zM94.204 33.235c0 2.04-.55 3.652-1.648 4.836-.982 1.054-2.203 1.58-3.66 1.58-1.573 0-2.703-.567-3.39-1.702h-.05v6.318h-2.653V31.334c0-1.283-.033-2.6-.098-3.95h2.333l.148 1.902h.05c.884-1.432 2.227-2.147 4.03-2.147 1.407 0 2.583.558 3.526 1.677.94 1.12 1.412 2.593 1.412 4.419zm-2.703.097c0-1.167-.263-2.13-.788-2.887-.574-.79-1.341-1.185-2.308-1.185-.656 0-1.25.22-1.782.654-.533.437-.88 1.008-1.043 1.716-.081.33-.123.6-.123.812v2c0 .873.266 1.61.796 2.21.533.6 1.225.902 2.078.902 1 0 1.777-.388 2.334-1.16.557-.774.836-1.794.836-3.062zM109.56 34.716c0 1.415-.489 2.566-1.471 3.455-1.079.971-2.581 1.456-4.511 1.456-1.782 0-3.21-.345-4.292-1.036l.615-2.221a7.25 7.25 0 003.835 1.062c1 0 1.777-.227 2.336-.68.556-.453.834-1.06.834-1.818 0-.674-.229-1.243-.688-1.704-.457-.462-1.22-.89-2.285-1.287-2.9-1.086-4.348-2.677-4.348-4.77 0-1.367.508-2.488 1.524-3.361 1.013-.874 2.365-1.31 4.055-1.31 1.507 0 2.759.264 3.758.79l-.663 2.172c-.934-.51-1.989-.764-3.17-.764-.933 0-1.663.23-2.185.69a1.98 1.98 0 00-.664 1.507c0 .658.253 1.201.761 1.629.442.395 1.244.822 2.409 1.284 1.425.576 2.472 1.25 3.145 2.022.671.77 1.005 1.734 1.005 2.884zM118.332 29.385h-2.924v5.824c0 1.481.515 2.221 1.548 2.221.474 0 .867-.041 1.178-.123l.074 2.023c-.523.197-1.211.295-2.064.295-1.047 0-1.866-.321-2.457-.962-.589-.643-.885-1.72-.885-3.234v-6.046h-1.742v-2h1.742v-2.197l2.606-.79v2.987h2.924v2.002zM131.527 33.284c0 1.844-.526 3.358-1.573 4.542-1.099 1.218-2.558 1.826-4.376 1.826-1.752 0-3.147-.584-4.187-1.751-1.041-1.168-1.561-2.642-1.561-4.418 0-1.859.535-3.381 1.609-4.565 1.072-1.185 2.518-1.777 4.336-1.777 1.752 0 3.162.583 4.226 1.752 1.018 1.134 1.526 2.598 1.526 4.391zm-2.753.087c0-1.107-.235-2.055-.712-2.847-.556-.957-1.351-1.435-2.382-1.435-1.066 0-1.876.48-2.433 1.435-.476.793-.711 1.757-.711 2.897 0 1.106.235 2.055.711 2.845.574.957 1.375 1.435 2.41 1.435 1.013 0 1.808-.488 2.381-1.46.49-.807.736-1.765.736-2.87zM140.151 29.729a4.591 4.591 0 00-.837-.074c-.933 0-1.655.354-2.162 1.062-.442.625-.664 1.415-.664 2.37v6.293h-2.652l.025-8.218c0-1.382-.033-2.64-.099-3.776h2.311l.097 2.295h.073c.28-.789.722-1.424 1.327-1.9.591-.429 1.229-.642 1.917-.642.246 0 .467.017.664.048v2.542zM152.017 32.816c0 .477-.031.88-.097 1.209h-7.96c.031 1.185.416 2.09 1.155 2.716.671.559 1.538.839 2.604.839 1.178 0 2.253-.19 3.22-.568l.416 1.85c-1.13.495-2.464.741-4.004.741-1.851 0-3.305-.547-4.363-1.64-1.055-1.095-1.584-2.563-1.584-4.406 0-1.809.492-3.315 1.476-4.516 1.031-1.283 2.423-1.924 4.175-1.924 1.721 0 3.024.641 3.909 1.924.701 1.019 1.053 2.279 1.053 3.775zm-2.53-.691c.017-.79-.156-1.473-.515-2.05-.459-.74-1.165-1.11-2.115-1.11-.867 0-1.573.36-2.111 1.086-.442.576-.705 1.267-.786 2.072l5.527.002zM117.827 17.5H115.4v-6.332h2.309c.514 0 .933.069 1.257.206.327.134.568.315.722.544.153.225.23.477.23.756 0 .184-.036.373-.106.569-.071.196-.197.38-.38.55-.178.163-.429.288-.753.375.461.08.826.242 1.096.488.273.241.41.579.41 1.012 0 .413-.105.754-.317 1.025a1.9 1.9 0 01-.852.606c-.357.134-.753.2-1.189.2zm-.006-.776c.411 0 .736-.096.977-.287.244-.192.367-.459.367-.8 0-.204-.044-.384-.131-.538a.813.813 0 00-.423-.356c-.195-.088-.456-.131-.784-.131h-1.369v2.112h1.363zm-.15-2.819c.37 0 .672-.097.909-.293a.955.955 0 00.361-.781.886.886 0 00-.118-.444.847.847 0 00-.399-.344c-.182-.087-.431-.131-.746-.131h-1.22v1.993h1.213zM107.812 17.587c-.921 0-1.653-.294-2.196-.881-.544-.588-.815-1.381-.815-2.381 0-.996.271-1.788.815-2.375.543-.588 1.275-.882 2.196-.882.921 0 1.651.294 2.191.882.539.587.808 1.379.808 2.375 0 1-.269 1.793-.808 2.38-.54.588-1.27.882-2.191.882zm0-.869c.436 0 .788-.098 1.058-.293.274-.2.475-.48.604-.838.128-.358.193-.777.193-1.256a3.71 3.71 0 00-.193-1.25 1.727 1.727 0 00-.604-.844c-.27-.2-.622-.3-1.058-.3-.439 0-.796.1-1.07.3a1.72 1.72 0 00-.603.844 3.686 3.686 0 00-.193 1.25c0 .479.064.898.193 1.256.128.358.329.638.603.838.278.195.635.293 1.07.293zM103.395 17.499h-1.114v-2.963h-3.024V17.5h-1.108v-6.325h1.108v2.525h3.024v-2.525h1.114v6.325zM96.383 17.499h-1.114V12.01h-3.024V17.5h-1.107v-6.325h5.245v6.325zM86.239 19.643h-.821l1.15-2.513-2.6-5.956h.958c.174 0 .288.075.342.225l1.686 4c.071.183.127.367.168.55.054-.192.119-.377.193-.556l1.63-3.994c.08-.15.19-.225.33-.225h.878l-3.516 8.194a.43.43 0 01-.143.2.396.396 0 01-.255.075zM81.238 17.499H80.13V12.01h-2.42v-.837h5.948v.837h-2.42V17.5zM74.903 17.587c-.51 0-.977-.123-1.4-.369-.419-.25-.755-.616-1.008-1.1-.249-.487-.373-1.085-.373-1.793 0-.613.11-1.165.33-1.657.224-.491.556-.88.995-1.168.44-.288.988-.432 1.643-.432.838 0 1.529.273 2.072.82l-.292.405a.496.496 0 01-.1.107.257.257 0 01-.137.03c-.083 0-.18-.045-.292-.137a2.49 2.49 0 00-.442-.237c-.187-.083-.433-.125-.74-.125-.436 0-.795.102-1.077.306a1.824 1.824 0 00-.622.844c-.133.358-.2.773-.2 1.244 0 .537.08.983.237 1.337.158.354.374.62.647.8.278.175.596.263.952.263.237 0 .436-.025.598-.075a1.738 1.738 0 00.69-.382c.063-.05.118-.09.168-.118a.297.297 0 01.156-.05c.095 0 .166.035.211.106l.318.406a2.595 2.595 0 01-1.064.75c-.41.15-.834.225-1.27.225zM68.073 17.587c-.92 0-1.653-.294-2.196-.881-.544-.588-.816-1.381-.816-2.381 0-.996.272-1.788.816-2.375.543-.588 1.275-.882 2.196-.882.921 0 1.651.294 2.19.882.54.587.81 1.379.81 2.375 0 1-.27 1.793-.81 2.38-.539.588-1.269.882-2.19.882zm0-.869c.436 0 .788-.098 1.058-.293.274-.2.475-.48.603-.838.129-.358.193-.777.193-1.256 0-.475-.064-.892-.193-1.25a1.726 1.726 0 00-.603-.844c-.27-.2-.622-.3-1.058-.3-.44 0-.796.1-1.07.3-.274.2-.475.481-.604.844a3.696 3.696 0 00-.193 1.25c0 .479.065.898.193 1.256.129.358.33.638.604.838.278.195.635.293 1.07.293zM63.859 19.68h-.722V17.5H55.95v1.824c0 .217-.128.336-.385.356h-.722v-3.13h.908c.266-.105.519-.407.76-.907.236-.496.441-1.306.615-2.431.17-1.13.29-2.686.361-4.669h5.295v8.006h1.463v2.775c0 .217-.129.336-.386.356zm-2.29-3.13V9.492h-2.95c-.103 2.02-.281 3.588-.534 4.7-.254 1.113-.558 1.898-.915 2.356h4.399z" fill="#fff"/></g><defs><clipPath id="aclip0_1341_3022"><path fill="#fff" d="M0 0h168v50H0z"/></clipPath></defs></svg>