<?xml version="1.0" encoding="utf-8"?><svg width="24" height="24" fill="none" xmlns="http://www.w3.org/2000/svg" viewBox="0 0 24 24"><path d="M17.123 16.195H8.058M20.087 18.382a2.25 2.25 0 10-1.67-4.18 2.25 2.25 0 001.67 4.18zM6.829 18.382a2.25 2.25 0 10-1.67-4.179 2.25 2.25 0 001.67 4.179z" stroke="#626970" stroke-miterlimit="10"/><path d="M22 12.044a.5.5 0 000 1v-1zm1.5 0H22v1h1.5v-1z" fill="#626970"/><path d="M21.5 16.544H23a.5.5 0 00.5-.5v-4.117a1 1 0 00-.876-.992l-3.124-.391-3.404-3.83a2.001 2.001 0 00-1.494-.67H3.75l-2.743 4.5.486 5a1 1 0 001 1h1.032" stroke="#626970" stroke-linejoin="round"/><path d="M2.5 5.543a.5.5 0 100 1v-1zm11.5 0H2.5v1H14v-1z" fill="#626970"/><path d="M19.137 10.152H7.05L3.021 7.885M11.492 16.544v-10.5" stroke="#626970" stroke-linejoin="round"/></svg>