<?xml version="1.0" encoding="utf-8"?><svg width="24" height="24" fill="none" xmlns="http://www.w3.org/2000/svg" viewBox="0 0 24 24"><path d="M8.571 6.81V5.34a.849.849 0 00-.857-.84h-.857A.849.849 0 006 5.34v2.942c0 .464.384.84.857.84h.857a.849.849 0 00.857-.84V6.81zm0 0H12m3.429 0v1.472c0 .464.383.84.857.84h.857a.849.849 0 00.857-.84V5.34a.849.849 0 00-.857-.84h-.857a.849.849 0 00-.857.84v1.47zm0 0H12M8.571 17.19v-1.472a.849.849 0 00-.857-.84h-.857a.849.849 0 00-.857.84v2.942c0 .464.384.84.857.84h.857a.849.849 0 00.857-.84v-1.47zm0 0H12m3.429 0v1.47c0 .464.383.84.857.84h.857a.849.849 0 00.857-.84v-2.941a.849.849 0 00-.857-.84h-.857a.849.849 0 00-.857.84v1.47zm0 0H12m0 0V6.81" stroke="#626970"/></svg>