<?xml version="1.0" encoding="utf-8"?><svg width="24" height="24" fill="none" xmlns="http://www.w3.org/2000/svg" viewBox="0 0 24 24"><path d="M15.988 8.319v-1.38a.766.766 0 00-.759-.76H7.294a.766.766 0 00-.759.76v.483c0 .414-.345.828-.759.828H4.258c-.414 0-.759.069-.759.483v5.658c0 .414.345.759.759.759h2.07l2.829 3.45h7.935a.766.766 0 00.759-.76v-2h2.346v1.38h1.035a.766.766 0 00.759-.76v-5.52c0-.413-.345-.69-.759-.69h-1.035v1.45h-2.346V9.837a.766.766 0 00-.759-.76h-.345c-.414.07-.759-.344-.759-.758zM11.09 6.18V4.8M8.054 4.8h6.003M3.568 11.7h-1.38M2.188 15.15v-6.9" stroke="#626970" stroke-linecap="round" stroke-linejoin="round"/></svg>