<?xml version="1.0" encoding="utf-8"?><svg width="168" height="50" xmlns="http://www.w3.org/2000/svg" viewBox="0 0 168 50"><g clip-path="url(#mclip0_1341_3048)"><path d="M0 0h168v50H0z"/><path stroke="#fff" stroke-opacity=".5" d="M.5.5h167v49H.5z"/><path d="M87.422 30.525c-2.835 0-5.148 2.1-5.148 4.997 0 2.896 2.31 4.994 5.148 4.994 2.837 0 5.147-2.12 5.147-4.994 0-2.874-2.31-4.997-5.147-4.997zm0 8.023c-1.555 0-2.895-1.25-2.895-3.026 0-1.777 1.34-3.03 2.895-3.03 1.554 0 2.892 1.23 2.892 3.03 0 1.799-1.34 3.026-2.892 3.026zm-11.23-8.023c-2.834 0-5.147 2.1-5.147 4.997 0 2.896 2.31 4.994 5.147 4.994s5.148-2.12 5.148-4.994c0-2.874-2.313-4.997-5.148-4.997zm0 8.023c-1.552 0-2.892-1.25-2.892-3.026 0-1.777 1.34-3.03 2.892-3.03 1.552 0 2.895 1.23 2.895 3.03 0 1.799-1.34 3.026-2.895 3.026zm-13.356-6.49v2.119h5.205c-.156 1.192-.561 2.061-1.184 2.667-.758.74-1.942 1.551-4.021 1.551-3.205 0-5.712-2.515-5.712-5.637 0-3.122 2.505-5.638 5.712-5.638 1.728 0 2.99.66 3.923 1.512l1.534-1.494C66.991 25.928 65.263 25 62.836 25c-4.389 0-8.08 3.483-8.08 7.758s3.691 7.758 8.08 7.758c2.368 0 4.155-.758 5.556-2.177 1.436-1.399 1.884-3.367 1.884-4.958 0-.49-.037-.944-.116-1.322h-7.324zm54.626 1.645c-.428-1.117-1.728-3.178-4.389-3.178-2.66 0-4.835 2.024-4.835 4.997 0 2.8 2.175 4.994 5.087 4.994 2.351 0 3.709-1.399 4.273-2.214l-1.748-1.136c-.585.832-1.378 1.382-2.525 1.382-1.146 0-1.963-.51-2.487-1.512l6.856-2.764-.232-.567v-.002zm-6.991 1.666a2.77 2.77 0 012.68-2.913c.895 0 1.653.434 1.905 1.06l-4.583 1.856-.002-.003zm-5.576 4.843h2.252V25.53h-2.252v14.682zm-3.691-8.57h-.078c-.504-.587-1.477-1.117-2.699-1.117-2.565 0-4.913 2.194-4.913 5.014 0 2.82 2.35 4.975 4.913 4.975 1.225 0 2.195-.53 2.699-1.137h.078v.72c0 1.911-1.048 2.932-2.74 2.932-1.377 0-2.234-.964-2.582-1.777l-1.962.795C94.48 43.373 95.978 45 98.465 45c2.64 0 4.875-1.514 4.875-5.203v-8.968h-2.136v.815-.003zm-2.583 6.906c-1.554 0-2.855-1.267-2.855-3.007 0-1.74 1.3-3.046 2.855-3.046s2.739 1.286 2.739 3.046c0 1.76-1.204 3.007-2.739 3.007zm29.396-13.015h-5.39v14.681h2.248v-5.561h3.142c2.494 0 4.943-1.76 4.943-4.56s-2.452-4.56-4.943-4.56zm.058 7.075h-3.2v-5.033h3.2a2.578 2.578 0 012.638 2.515 2.578 2.578 0 01-2.638 2.516m13.902-2.108c-1.627 0-3.315.7-4.013 2.245l1.998.813c.426-.813 1.222-1.078 2.056-1.078 1.164 0 2.345.68 2.366 1.888v.152c-.409-.226-1.28-.567-2.346-.567-2.152 0-4.344 1.15-4.344 3.306 0 1.966 1.766 3.23 3.742 3.23 1.514 0 2.345-.66 2.87-1.436h.078v1.134h2.171v-5.63c0-2.607-1.995-4.06-4.575-4.06m-.272 8.045c-.738 0-1.766-.358-1.766-1.246 0-1.134 1.28-1.566 2.386-1.566.987 0 1.453.208 2.056.49-.174 1.36-1.376 2.325-2.676 2.325m12.759-7.726l-2.58 6.366h-.078l-2.676-6.366h-2.424l4.014 8.897-2.288 4.947h2.346l6.185-13.844h-2.502.003zm-20.262 9.392h2.25V25.528h-2.25v14.681zM117.827 17.5H115.4v-6.332h2.309c.514 0 .933.069 1.257.206.327.134.568.315.722.544.153.225.23.477.23.756 0 .184-.036.373-.106.569-.071.196-.197.38-.38.55-.178.163-.429.288-.753.375.461.08.826.242 1.096.488.273.241.41.579.41 1.012 0 .413-.105.754-.317 1.025a1.9 1.9 0 01-.852.606c-.357.134-.753.2-1.189.2zm-.006-.776c.411 0 .736-.096.977-.287.244-.192.367-.459.367-.8 0-.204-.044-.384-.131-.538a.813.813 0 00-.423-.356c-.195-.088-.456-.131-.784-.131h-1.369v2.112h1.363zm-.15-2.819c.37 0 .672-.097.909-.293a.955.955 0 00.361-.781.886.886 0 00-.118-.444.847.847 0 00-.399-.344c-.182-.087-.431-.131-.746-.131h-1.22v1.993h1.213zM107.812 17.587c-.921 0-1.653-.294-2.196-.881-.544-.588-.815-1.381-.815-2.381 0-.996.271-1.788.815-2.375.543-.588 1.275-.882 2.196-.882.921 0 1.651.294 2.191.882.539.587.808 1.379.808 2.375 0 1-.269 1.793-.808 2.38-.54.588-1.27.882-2.191.882zm0-.869c.436 0 .788-.098 1.058-.293.274-.2.475-.48.604-.838.128-.358.193-.777.193-1.256a3.71 3.71 0 00-.193-1.25 1.727 1.727 0 00-.604-.844c-.27-.2-.622-.3-1.058-.3-.439 0-.796.1-1.07.3a1.72 1.72 0 00-.603.844 3.686 3.686 0 00-.193 1.25c0 .479.064.898.193 1.256.128.358.329.638.603.838.278.195.635.293 1.07.293zM103.395 17.499h-1.114v-2.963h-3.024V17.5h-1.108v-6.325h1.108v2.525h3.024v-2.525h1.114v6.325zM96.383 17.499h-1.114V12.01h-3.024V17.5h-1.107v-6.325h5.245v6.325zM86.239 19.643h-.821l1.15-2.513-2.6-5.956h.958c.174 0 .288.075.342.225l1.686 4c.071.183.127.367.168.55.054-.192.119-.377.193-.556l1.63-3.994c.08-.15.19-.225.33-.225h.878l-3.516 8.194a.43.43 0 01-.143.2.396.396 0 01-.255.075zM81.238 17.499H80.13V12.01h-2.42v-.837h5.948v.837h-2.42V17.5zM74.903 17.587c-.51 0-.977-.123-1.4-.369-.419-.25-.755-.616-1.008-1.1-.249-.487-.373-1.085-.373-1.793 0-.613.11-1.165.33-1.657.224-.491.556-.88.995-1.168.44-.288.988-.432 1.643-.432.838 0 1.529.273 2.072.82l-.292.405a.496.496 0 01-.1.107.257.257 0 01-.137.03c-.083 0-.18-.045-.292-.137a2.49 2.49 0 00-.442-.237c-.187-.083-.433-.125-.74-.125-.436 0-.795.102-1.077.306a1.824 1.824 0 00-.622.844c-.133.358-.2.773-.2 1.244 0 .537.08.983.237 1.337.158.354.374.62.647.8.278.175.596.263.952.263.237 0 .436-.025.598-.075a1.738 1.738 0 00.69-.382c.063-.05.118-.09.168-.118a.297.297 0 01.156-.05c.095 0 .166.035.211.106l.318.406a2.595 2.595 0 01-1.064.75c-.41.15-.834.225-1.27.225zM68.073 17.587c-.92 0-1.653-.294-2.196-.881-.544-.588-.816-1.381-.816-2.381 0-.996.272-1.788.816-2.375.543-.588 1.275-.882 2.196-.882.921 0 1.651.294 2.19.882.54.587.81 1.379.81 2.375 0 1-.27 1.793-.81 2.38-.539.588-1.269.882-2.19.882zm0-.869c.436 0 .788-.098 1.058-.293.274-.2.475-.48.603-.838.129-.358.193-.777.193-1.256 0-.475-.064-.892-.193-1.25a1.726 1.726 0 00-.603-.844c-.27-.2-.622-.3-1.058-.3-.44 0-.796.1-1.07.3-.274.2-.475.481-.604.844a3.696 3.696 0 00-.193 1.25c0 .479.065.898.193 1.256.129.358.33.638.604.838.278.195.635.293 1.07.293zM63.859 19.68h-.722V17.5H55.95v1.824c0 .217-.128.336-.385.356h-.722v-3.13h.908c.266-.105.519-.407.76-.907.236-.496.441-1.306.615-2.431.17-1.13.29-2.686.361-4.669h5.295v8.006h1.463v2.775c0 .217-.129.336-.386.356zm-2.29-3.13V9.492h-2.95c-.103 2.02-.281 3.588-.534 4.7-.254 1.113-.558 1.898-.915 2.356h4.399z" fill="#fff"/><g clip-path="url(#mclip1_1341_3048)"><path d="M19.096 8.358L37.47 18.969l-3.938 3.956L19.096 8.358zM15.29 7.5l16.865 16.875L15.291 41.25a2.42 2.42 0 01-1.446-2.215l.001-.095v.004V9.808l-.001-.092c0-.986.588-1.833 1.43-2.209l.016-.006-.002-.001zm27.89 14.898c.58.431.95 1.118.95 1.89v.091-.004a2.195 2.195 0 01-.88 1.973l-.007.004-3.938 2.24-4.264-4.217 4.266-4.285 3.873 2.308zM19.096 40.392l14.437-14.567 3.938 3.956-18.375 10.611z" fill="#fff"/></g></g><defs><clipPath id="mclip0_1341_3048"><path fill="#fff" d="M0 0h168v50H0z"/></clipPath><clipPath id="mclip1_1341_3048"><path fill="#fff" transform="translate(12.444 7.5)" d="M0 0h33.6v33.75H0z"/></clipPath></defs></svg>