<?xml version="1.0" encoding="utf-8"?><svg width="170" height="50" fill="none" xmlns="http://www.w3.org/2000/svg" viewBox="0 0 170 50"><path d="M140.017 26.593V16.279h-7.697v16.768h21.623v-6.454h-13.926zM32.952 21.233h-8.954v-4.954h-7.696v16.768h7.696v-5.36h8.954v5.36h7.685V16.279h-7.685v4.954zM64.38 16.28h-9.362l4.46 7.697 5.239 9.07h9.362l-9.7-16.768zM45.26 33.047h8.965l4.786-8.256-4.494-7.768-9.257 16.024zM117.998 16.28h-9.35l4.448 7.697 5.252 9.07H127.709l-9.699-16.768h-.012zM98.879 33.047h8.977l4.774-8.256-4.483-7.768-9.268 16.024zM100.894 16.28h-9.362l-5.24 9.069-4.447 7.698h9.361l9.688-16.768zM81.04 16.28h-8.965l9.257 16.022 4.495-7.755-4.786-8.268z" fill="currentColor"/></svg>