<?xml version="1.0" encoding="utf-8"?><svg width="24" height="24" fill="none" xmlns="http://www.w3.org/2000/svg" viewBox="0 0 24 24"><path d="M22.2 12.9h-3m3 0c0-2.735-1.076-5.218-2.828-7.05M22.2 12.9a10.19 10.19 0 01-4.5 8.46M1.8 12.9h3m-3 0c0-2.735 1.076-5.218 2.829-7.05M1.8 12.9a10.19 10.19 0 004.5 8.46M12 2.85v3m7.372 0A10.17 10.17 0 0012 2.7a10.17 10.17 0 00-7.371 3.15m14.742 0L18.15 7.07M4.629 5.85L6.3 7.07M16 9.5L12 13" stroke="#626970" stroke-linecap="round" stroke-linejoin="round"/></svg>