<?xml version="1.0" encoding="utf-8"?><svg width="50" height="50" xmlns="http://www.w3.org/2000/svg" viewBox="0 0 50 50"><rect width="50" height="50" rx="25"/><path fill-rule="evenodd" clip-rule="evenodd" d="M29.892 22.838a6.859 6.859 0 01-4.886 2.048 6.865 6.865 0 01-4.887-2.048 6.97 6.97 0 01-2.032-4.926c0-1.926.781-3.665 2.032-4.926a6.859 6.859 0 014.887-2.049c1.91 0 3.636.788 4.886 2.049a6.97 6.97 0 012.032 4.926 6.975 6.975 0 01-2.032 4.926zm-4.886-8.115a3.12 3.12 0 00-2.22.931 3.155 3.155 0 00-.923 2.237c0 .871.35 1.656.924 2.237a3.1 3.1 0 002.219.93c.864 0 1.642-.352 2.219-.93.576-.581.923-1.366.923-2.237s-.35-1.656-.923-2.237c-.577-.56-1.355-.931-2.22-.931zm7.269 10.184c-.104-.165-.33-.186-.493-.063-1.931 1.656-4.272 2.713-6.797 2.713-2.525 0-4.887-1.075-6.797-2.713-.143-.123-.348-.104-.472.063l-2.032 2.794c-.104.123-.062.332.062.434a14.375 14.375 0 005.77 2.836l-3.922 7.597c-.104.207.041.476.288.476h4.189a.32.32 0 00.308-.206l2.63-6.274 2.607 6.292a.362.362 0 00.31.206h4.188c.246 0 .39-.248.288-.476l-3.921-7.617c2.073-.498 4.066-1.429 5.769-2.836.142-.105.163-.29.062-.435l-2.032-2.794-.005.003z" fill="#fff"/></svg>