<?xml version="1.0" encoding="utf-8"?><svg width="60" height="60" fill="none" xmlns="http://www.w3.org/2000/svg" viewBox="0 0 60 60"><path d="M22.5 22.5h.025m14.975 15h.025M40 20L20 40m24.753-27.504a5.082 5.082 0 002.747 2.752l4.363 1.807a5.082 5.082 0 012.75 6.64l-1.806 4.36a5.074 5.074 0 00.002 3.89l1.803 4.36a5.081 5.081 0 01-2.751 6.641l-4.36 1.806A5.081 5.081 0 0044.75 47.5l-1.808 4.364a5.082 5.082 0 01-6.639 2.75l-4.36-1.806a5.081 5.081 0 00-3.888.003l-4.363 1.804a5.081 5.081 0 01-6.635-2.748l-1.808-4.364a5.081 5.081 0 00-2.747-2.752L8.14 42.943a5.082 5.082 0 01-2.751-6.637l1.806-4.36a5.082 5.082 0 00-.003-3.888l-1.804-4.366a5.082 5.082 0 012.751-6.642l4.36-1.806a5.082 5.082 0 002.75-2.744l1.807-4.363a5.081 5.081 0 016.64-2.75l4.36 1.806a5.081 5.081 0 003.888-.003l4.364-1.8a5.081 5.081 0 016.639 2.75l1.808 4.364-.001-.008zM23.75 22.5a1.25 1.25 0 11-2.5 0 1.25 1.25 0 012.5 0zm15 15a1.25 1.25 0 11-2.5 0 1.25 1.25 0 012.5 0z" stroke="currentColor" stroke-width="1.5" stroke-linecap="round" stroke-linejoin="round"/></svg>