<?xml version="1.0" encoding="utf-8"?><svg width="60" height="60" fill="none" xmlns="http://www.w3.org/2000/svg" viewBox="0 0 60 60"><path d="M30 37.5a7.5 7.5 0 100-15 7.5 7.5 0 000 15z" stroke="currentColor" stroke-width="1.5" stroke-linecap="round" stroke-linejoin="round"/><path d="M46.818 36.818a3.75 3.75 0 00.75 4.137l.137.136a4.546 4.546 0 01-1.476 7.418 4.546 4.546 0 01-4.956-.986l-.137-.137a3.75 3.75 0 00-4.136-.75 3.75 3.75 0 00-2.273 3.432v.387a4.545 4.545 0 11-9.09 0v-.205a3.75 3.75 0 00-2.455-3.432 3.75 3.75 0 00-4.136.75l-.137.137a4.546 4.546 0 01-7.418-1.476 4.546 4.546 0 01.986-4.956l.137-.137a3.75 3.75 0 00.75-4.136 3.75 3.75 0 00-3.432-2.273h-.387a4.545 4.545 0 110-9.09h.205a3.75 3.75 0 003.432-2.455 3.75 3.75 0 00-.75-4.136l-.136-.137a4.546 4.546 0 011.475-7.418 4.546 4.546 0 014.956.986l.137.137a3.75 3.75 0 004.136.75h.182a3.75 3.75 0 002.273-3.432v-.387a4.545 4.545 0 119.09 0v.205a3.75 3.75 0 002.273 3.432 3.75 3.75 0 004.137-.75l.136-.136a4.546 4.546 0 017.418 1.475 4.546 4.546 0 01-.986 4.956l-.137.137a3.75 3.75 0 00-.75 4.136v.182a3.75 3.75 0 003.432 2.273h.387a4.545 4.545 0 110 9.09h-.205a3.75 3.75 0 00-3.432 2.273z" stroke="currentColor" stroke-width="1.5" stroke-linecap="round" stroke-linejoin="round"/></svg>