<?xml version="1.0" encoding="utf-8"?><svg width="50" height="50" xmlns="http://www.w3.org/2000/svg" viewBox="0 0 50 50"><g clip-path="url(#xclip0_1341_3013)"><rect width="50" height="50" rx="25"/><path fill-rule="evenodd" clip-rule="evenodd" d="M11.317 24.737c7.288-3.175 12.147-5.269 14.58-6.28 6.942-2.888 8.385-3.39 9.325-3.406.207-.004.669.048.968.29.253.206.323.483.356.678.034.194.075.638.042.984-.376 3.953-2.004 13.546-2.832 17.974-.35 1.873-1.04 2.501-1.709 2.563-1.452.133-2.554-.96-3.96-1.882-2.2-1.442-3.444-2.34-5.58-3.747-2.468-1.627-.867-2.52.54-3.982.367-.382 6.764-6.2 6.888-6.728.015-.066.03-.312-.117-.442-.146-.13-.362-.086-.517-.05-.22.05-3.736 2.373-10.545 6.97-.998.685-1.902 1.019-2.712 1.001-.892-.02-2.61-.505-3.886-.92-1.565-.509-2.81-.778-2.701-1.642.056-.45.676-.91 1.86-1.381z" fill="#fff"/></g><defs><clipPath id="xclip0_1341_3013"><path fill="#fff" d="M0 0h50v50H0z"/></clipPath></defs></svg>