<?xml version="1.0" encoding="utf-8"?><svg width="50" height="50" xmlns="http://www.w3.org/2000/svg" viewBox="0 0 50 50"><rect width="50" height="50" rx="25"/><path d="M26.186 34.375c-9.075 0-14.252-6.159-14.467-16.406h4.546c.15 7.521 3.5 10.707 6.155 11.364V17.97h4.28v6.487c2.622-.28 5.376-3.236 6.305-6.487h4.28a12.449 12.449 0 01-2.05 4.69 12.591 12.591 0 01-3.773 3.488 13.086 13.086 0 014.301 3.39 12.927 12.927 0 012.518 4.838H33.57a8.104 8.104 0 00-2.54-3.958 8.235 8.235 0 00-4.328-1.905v5.863h-.515z" fill="#fff"/></svg>