<?xml version="1.0" encoding="utf-8"?><svg viewBox="0 0 170 60" xmlns="http://www.w3.org/2000/svg" xmlns:xlink="http://www.w3.org/1999/xlink"><style>:root>svg{display:none}:root>svg:target{display:block}</style><svg viewBox="0 0 168 50" id="app-store" xmlns="http://www.w3.org/2000/svg"><g clip-path="url(#aclip0_1341_3022)"><path d="M0 0h168v50H0z"/><path stroke="#fff" stroke-opacity=".5" d="M.5.5h167v49H.5z"/><path d="M37.493 24.73c-.036-4.03 3.284-5.99 3.436-6.08-1.88-2.754-4.795-3.13-5.82-3.16-2.447-.26-4.822 1.47-6.069 1.47-1.271 0-3.191-1.446-5.261-1.403-2.663.041-5.154 1.59-6.52 3.995-2.82 4.904-.718 12.11 1.984 16.074 1.351 1.94 2.93 4.108 4.998 4.032 2.022-.084 2.777-1.295 5.218-1.295 2.418 0 3.127 1.295 5.235 1.246 2.17-.035 3.537-1.95 4.84-3.909 1.563-2.225 2.19-4.416 2.215-4.528-.051-.018-4.215-1.614-4.256-6.443zM33.51 12.883c1.088-1.366 1.833-3.225 1.626-5.112-1.574.07-3.543 1.094-4.677 2.43-1.003 1.178-1.899 3.108-1.667 4.923 1.768.133 3.584-.896 4.719-2.241zM66.759 39.381h-2.827l-1.547-4.886h-5.381l-1.475 4.886h-2.752l5.331-16.635h3.293l5.358 16.635zm-4.841-6.936l-1.4-4.344c-.148-.444-.426-1.489-.835-3.134h-.05c-.163.708-.426 1.753-.787 3.134l-1.375 4.344h4.447zM80.469 33.235c0 2.04-.55 3.652-1.647 4.836-.983 1.054-2.204 1.58-3.66 1.58-1.574 0-2.704-.567-3.392-1.702h-.05v6.318h-2.653V31.334c0-1.283-.033-2.6-.098-3.95h2.333l.148 1.902h.05c.885-1.432 2.228-2.147 4.03-2.147 1.408 0 2.584.558 3.525 1.677.943 1.12 1.414 2.593 1.414 4.419zm-2.703.097c0-1.167-.262-2.13-.787-2.887-.573-.79-1.344-1.185-2.31-1.185-.654 0-1.249.22-1.78.654-.533.437-.881 1.008-1.044 1.716a3.5 3.5 0 00-.123.812v2c0 .873.266 1.61.798 2.21.533.602 1.225.902 2.076.902 1 0 1.777-.388 2.334-1.16.557-.774.836-1.794.836-3.062zM94.204 33.235c0 2.04-.55 3.652-1.648 4.836-.982 1.054-2.203 1.58-3.66 1.58-1.573 0-2.703-.567-3.39-1.702h-.05v6.318h-2.653V31.334c0-1.283-.033-2.6-.098-3.95h2.333l.148 1.902h.05c.884-1.432 2.227-2.147 4.03-2.147 1.407 0 2.583.558 3.526 1.677.94 1.12 1.412 2.593 1.412 4.419zm-2.703.097c0-1.167-.263-2.13-.788-2.887-.574-.79-1.341-1.185-2.308-1.185-.656 0-1.25.22-1.782.654-.533.437-.88 1.008-1.043 1.716-.081.33-.123.6-.123.812v2c0 .873.266 1.61.796 2.21.533.6 1.225.902 2.078.902 1 0 1.777-.388 2.334-1.16.557-.774.836-1.794.836-3.062zM109.56 34.716c0 1.415-.489 2.566-1.471 3.455-1.079.971-2.581 1.456-4.511 1.456-1.782 0-3.21-.345-4.292-1.036l.615-2.221a7.25 7.25 0 003.835 1.062c1 0 1.777-.227 2.336-.68.556-.453.834-1.06.834-1.818 0-.674-.229-1.243-.688-1.704-.457-.462-1.22-.89-2.285-1.287-2.9-1.086-4.348-2.677-4.348-4.77 0-1.367.508-2.488 1.524-3.361 1.013-.874 2.365-1.31 4.055-1.31 1.507 0 2.759.264 3.758.79l-.663 2.172c-.934-.51-1.989-.764-3.17-.764-.933 0-1.663.23-2.185.69a1.98 1.98 0 00-.664 1.507c0 .658.253 1.201.761 1.629.442.395 1.244.822 2.409 1.284 1.425.576 2.472 1.25 3.145 2.022.671.77 1.005 1.734 1.005 2.884zM118.332 29.385h-2.924v5.824c0 1.481.515 2.221 1.548 2.221.474 0 .867-.041 1.178-.123l.074 2.023c-.523.197-1.211.295-2.064.295-1.047 0-1.866-.321-2.457-.962-.589-.643-.885-1.72-.885-3.234v-6.046h-1.742v-2h1.742v-2.197l2.606-.79v2.987h2.924v2.002zM131.527 33.284c0 1.844-.526 3.358-1.573 4.542-1.099 1.218-2.558 1.826-4.376 1.826-1.752 0-3.147-.584-4.187-1.751-1.041-1.168-1.561-2.642-1.561-4.418 0-1.859.535-3.381 1.609-4.565 1.072-1.185 2.518-1.777 4.336-1.777 1.752 0 3.162.583 4.226 1.752 1.018 1.134 1.526 2.598 1.526 4.391zm-2.753.087c0-1.107-.235-2.055-.712-2.847-.556-.957-1.351-1.435-2.382-1.435-1.066 0-1.876.48-2.433 1.435-.476.793-.711 1.757-.711 2.897 0 1.106.235 2.055.711 2.845.574.957 1.375 1.435 2.41 1.435 1.013 0 1.808-.488 2.381-1.46.49-.807.736-1.765.736-2.87zM140.151 29.729a4.591 4.591 0 00-.837-.074c-.933 0-1.655.354-2.162 1.062-.442.625-.664 1.415-.664 2.37v6.293h-2.652l.025-8.218c0-1.382-.033-2.64-.099-3.776h2.311l.097 2.295h.073c.28-.789.722-1.424 1.327-1.9.591-.429 1.229-.642 1.917-.642.246 0 .467.017.664.048v2.542zM152.017 32.816c0 .477-.031.88-.097 1.209h-7.96c.031 1.185.416 2.09 1.155 2.716.671.559 1.538.839 2.604.839 1.178 0 2.253-.19 3.22-.568l.416 1.85c-1.13.495-2.464.741-4.004.741-1.851 0-3.305-.547-4.363-1.64-1.055-1.095-1.584-2.563-1.584-4.406 0-1.809.492-3.315 1.476-4.516 1.031-1.283 2.423-1.924 4.175-1.924 1.721 0 3.024.641 3.909 1.924.701 1.019 1.053 2.279 1.053 3.775zm-2.53-.691c.017-.79-.156-1.473-.515-2.05-.459-.74-1.165-1.11-2.115-1.11-.867 0-1.573.36-2.111 1.086-.442.576-.705 1.267-.786 2.072l5.527.002zM117.827 17.5H115.4v-6.332h2.309c.514 0 .933.069 1.257.206.327.134.568.315.722.544.153.225.23.477.23.756 0 .184-.036.373-.106.569-.071.196-.197.38-.38.55-.178.163-.429.288-.753.375.461.08.826.242 1.096.488.273.241.41.579.41 1.012 0 .413-.105.754-.317 1.025a1.9 1.9 0 01-.852.606c-.357.134-.753.2-1.189.2zm-.006-.776c.411 0 .736-.096.977-.287.244-.192.367-.459.367-.8 0-.204-.044-.384-.131-.538a.813.813 0 00-.423-.356c-.195-.088-.456-.131-.784-.131h-1.369v2.112h1.363zm-.15-2.819c.37 0 .672-.097.909-.293a.955.955 0 00.361-.781.886.886 0 00-.118-.444.847.847 0 00-.399-.344c-.182-.087-.431-.131-.746-.131h-1.22v1.993h1.213zM107.812 17.587c-.921 0-1.653-.294-2.196-.881-.544-.588-.815-1.381-.815-2.381 0-.996.271-1.788.815-2.375.543-.588 1.275-.882 2.196-.882.921 0 1.651.294 2.191.882.539.587.808 1.379.808 2.375 0 1-.269 1.793-.808 2.38-.54.588-1.27.882-2.191.882zm0-.869c.436 0 .788-.098 1.058-.293.274-.2.475-.48.604-.838.128-.358.193-.777.193-1.256a3.71 3.71 0 00-.193-1.25 1.727 1.727 0 00-.604-.844c-.27-.2-.622-.3-1.058-.3-.439 0-.796.1-1.07.3a1.72 1.72 0 00-.603.844 3.686 3.686 0 00-.193 1.25c0 .479.064.898.193 1.256.128.358.329.638.603.838.278.195.635.293 1.07.293zM103.395 17.499h-1.114v-2.963h-3.024V17.5h-1.108v-6.325h1.108v2.525h3.024v-2.525h1.114v6.325zM96.383 17.499h-1.114V12.01h-3.024V17.5h-1.107v-6.325h5.245v6.325zM86.239 19.643h-.821l1.15-2.513-2.6-5.956h.958c.174 0 .288.075.342.225l1.686 4c.071.183.127.367.168.55.054-.192.119-.377.193-.556l1.63-3.994c.08-.15.19-.225.33-.225h.878l-3.516 8.194a.43.43 0 01-.143.2.396.396 0 01-.255.075zM81.238 17.499H80.13V12.01h-2.42v-.837h5.948v.837h-2.42V17.5zM74.903 17.587c-.51 0-.977-.123-1.4-.369-.419-.25-.755-.616-1.008-1.1-.249-.487-.373-1.085-.373-1.793 0-.613.11-1.165.33-1.657.224-.491.556-.88.995-1.168.44-.288.988-.432 1.643-.432.838 0 1.529.273 2.072.82l-.292.405a.496.496 0 01-.1.107.257.257 0 01-.137.03c-.083 0-.18-.045-.292-.137a2.49 2.49 0 00-.442-.237c-.187-.083-.433-.125-.74-.125-.436 0-.795.102-1.077.306a1.824 1.824 0 00-.622.844c-.133.358-.2.773-.2 1.244 0 .537.08.983.237 1.337.158.354.374.62.647.8.278.175.596.263.952.263.237 0 .436-.025.598-.075a1.738 1.738 0 00.69-.382c.063-.05.118-.09.168-.118a.297.297 0 01.156-.05c.095 0 .166.035.211.106l.318.406a2.595 2.595 0 01-1.064.75c-.41.15-.834.225-1.27.225zM68.073 17.587c-.92 0-1.653-.294-2.196-.881-.544-.588-.816-1.381-.816-2.381 0-.996.272-1.788.816-2.375.543-.588 1.275-.882 2.196-.882.921 0 1.651.294 2.19.882.54.587.81 1.379.81 2.375 0 1-.27 1.793-.81 2.38-.539.588-1.269.882-2.19.882zm0-.869c.436 0 .788-.098 1.058-.293.274-.2.475-.48.603-.838.129-.358.193-.777.193-1.256 0-.475-.064-.892-.193-1.25a1.726 1.726 0 00-.603-.844c-.27-.2-.622-.3-1.058-.3-.44 0-.796.1-1.07.3-.274.2-.475.481-.604.844a3.696 3.696 0 00-.193 1.25c0 .479.065.898.193 1.256.129.358.33.638.604.838.278.195.635.293 1.07.293zM63.859 19.68h-.722V17.5H55.95v1.824c0 .217-.128.336-.385.356h-.722v-3.13h.908c.266-.105.519-.407.76-.907.236-.496.441-1.306.615-2.431.17-1.13.29-2.686.361-4.669h5.295v8.006h1.463v2.775c0 .217-.129.336-.386.356zm-2.29-3.13V9.492h-2.95c-.103 2.02-.281 3.588-.534 4.7-.254 1.113-.558 1.898-.915 2.356h4.399z" fill="#fff"/></g><defs><clipPath id="aclip0_1341_3022"><path fill="#fff" d="M0 0h168v50H0z"/></clipPath></defs></svg><svg fill="none" viewBox="0 0 24 24" id="arrow-down" xmlns="http://www.w3.org/2000/svg"><path d="M6 9l6 6 6-6" stroke="#3E3935" stroke-width="1.5" stroke-linecap="round" stroke-linejoin="round"/></svg><svg fill="none" viewBox="0 0 24 24" id="arrow-next" xmlns="http://www.w3.org/2000/svg"><path d="M9 18l6-6-6-6" stroke="currentColor" stroke-linecap="round" stroke-linejoin="round"/></svg><svg fill="none" viewBox="0 0 24 24" id="arrow-prev" xmlns="http://www.w3.org/2000/svg"><path d="M15 18l-6-6 6-6" stroke="currentColor" stroke-linecap="round" stroke-linejoin="round"/></svg><svg fill="none" viewBox="0 0 24 24" id="arrow-right" xmlns="http://www.w3.org/2000/svg"><path d="M9 18l6-6-6-6" stroke="currentColor" stroke-width="2" stroke-linecap="round" stroke-linejoin="round"/></svg><svg fill="none" viewBox="0 0 24 24" id="arrow-up" xmlns="http://www.w3.org/2000/svg"><path d="M18 15l-6-6-6 6" stroke="#fff" stroke-width="2" stroke-linecap="round" stroke-linejoin="round"/></svg><svg fill="none" viewBox="0 0 24 24" id="car" xmlns="http://www.w3.org/2000/svg"><path d="M17.123 16.195H8.058M20.087 18.382a2.25 2.25 0 10-1.67-4.18 2.25 2.25 0 001.67 4.18zM6.829 18.382a2.25 2.25 0 10-1.67-4.179 2.25 2.25 0 001.67 4.179z" stroke="#626970" stroke-miterlimit="10"/><path d="M22 12.044a.5.5 0 000 1v-1zm1.5 0H22v1h1.5v-1z" fill="#626970"/><path d="M21.5 16.544H23a.5.5 0 00.5-.5v-4.117a1 1 0 00-.876-.992l-3.124-.391-3.404-3.83a2.001 2.001 0 00-1.494-.67H3.75l-2.743 4.5.486 5a1 1 0 001 1h1.032" stroke="#626970" stroke-linejoin="round"/><path d="M2.5 5.543a.5.5 0 100 1v-1zm11.5 0H2.5v1H14v-1z" fill="#626970"/><path d="M19.137 10.152H7.05L3.021 7.885M11.492 16.544v-10.5" stroke="#626970" stroke-linejoin="round"/></svg><svg fill="none" viewBox="0 0 24 24" id="check" xmlns="http://www.w3.org/2000/svg"><path d="M20 6L9 17l-5-5" stroke="#00CABF" stroke-width="1.5" stroke-linecap="round" stroke-linejoin="round"/></svg><svg fill="none" viewBox="0 0 14 14" id="check-icon" xmlns="http://www.w3.org/2000/svg"><path d="M11.667 3.5L5.25 9.917 2.333 7" stroke="#000" stroke-linecap="square"/></svg><svg fill="none" viewBox="0 0 60 60" id="credit-card" xmlns="http://www.w3.org/2000/svg"><path d="M40 45l5 5 10-10m0-15H5m50 5v-9.5c0-2.8 0-4.2-.545-5.27a4.999 4.999 0 00-2.185-2.185C51.2 12.5 49.8 12.5 47 12.5H13c-2.8 0-4.2 0-5.27.545a5 5 0 00-2.185 2.185C5 16.3 5 17.7 5 20.5v19c0 2.8 0 4.2.545 5.27a5 5 0 002.185 2.185c1.07.545 2.47.545 5.27.545h17" stroke="currentColor" stroke-width="1.5" stroke-linecap="round" stroke-linejoin="round"/></svg><svg fill="none" viewBox="0 0 24 24" id="drive-unit" xmlns="http://www.w3.org/2000/svg"><path d="M8.571 6.81V5.34a.849.849 0 00-.857-.84h-.857A.849.849 0 006 5.34v2.942c0 .464.384.84.857.84h.857a.849.849 0 00.857-.84V6.81zm0 0H12m3.429 0v1.472c0 .464.383.84.857.84h.857a.849.849 0 00.857-.84V5.34a.849.849 0 00-.857-.84h-.857a.849.849 0 00-.857.84v1.47zm0 0H12M8.571 17.19v-1.472a.849.849 0 00-.857-.84h-.857a.849.849 0 00-.857.84v2.942c0 .464.384.84.857.84h.857a.849.849 0 00.857-.84v-1.47zm0 0H12m3.429 0v1.47c0 .464.383.84.857.84h.857a.849.849 0 00.857-.84v-2.941a.849.849 0 00-.857-.84h-.857a.849.849 0 00-.857.84v1.47zm0 0H12m0 0V6.81" stroke="#626970"/></svg><svg fill="none" viewBox="0 0 24 24" id="engine" xmlns="http://www.w3.org/2000/svg"><path d="M15.988 8.319v-1.38a.766.766 0 00-.759-.76H7.294a.766.766 0 00-.759.76v.483c0 .414-.345.828-.759.828H4.258c-.414 0-.759.069-.759.483v5.658c0 .414.345.759.759.759h2.07l2.829 3.45h7.935a.766.766 0 00.759-.76v-2h2.346v1.38h1.035a.766.766 0 00.759-.76v-5.52c0-.413-.345-.69-.759-.69h-1.035v1.45h-2.346V9.837a.766.766 0 00-.759-.76h-.345c-.414.07-.759-.344-.759-.758zM11.09 6.18V4.8M8.054 4.8h6.003M3.568 11.7h-1.38M2.188 15.15v-6.9" stroke="#626970" stroke-linecap="round" stroke-linejoin="round"/></svg><svg viewBox="0 0 168 50" id="google-play" xmlns="http://www.w3.org/2000/svg"><g clip-path="url(#mclip0_1341_3048)"><path d="M0 0h168v50H0z"/><path stroke="#fff" stroke-opacity=".5" d="M.5.5h167v49H.5z"/><path d="M87.422 30.525c-2.835 0-5.148 2.1-5.148 4.997 0 2.896 2.31 4.994 5.148 4.994 2.837 0 5.147-2.12 5.147-4.994 0-2.874-2.31-4.997-5.147-4.997zm0 8.023c-1.555 0-2.895-1.25-2.895-3.026 0-1.777 1.34-3.03 2.895-3.03 1.554 0 2.892 1.23 2.892 3.03 0 1.799-1.34 3.026-2.892 3.026zm-11.23-8.023c-2.834 0-5.147 2.1-5.147 4.997 0 2.896 2.31 4.994 5.147 4.994s5.148-2.12 5.148-4.994c0-2.874-2.313-4.997-5.148-4.997zm0 8.023c-1.552 0-2.892-1.25-2.892-3.026 0-1.777 1.34-3.03 2.892-3.03 1.552 0 2.895 1.23 2.895 3.03 0 1.799-1.34 3.026-2.895 3.026zm-13.356-6.49v2.119h5.205c-.156 1.192-.561 2.061-1.184 2.667-.758.74-1.942 1.551-4.021 1.551-3.205 0-5.712-2.515-5.712-5.637 0-3.122 2.505-5.638 5.712-5.638 1.728 0 2.99.66 3.923 1.512l1.534-1.494C66.991 25.928 65.263 25 62.836 25c-4.389 0-8.08 3.483-8.08 7.758s3.691 7.758 8.08 7.758c2.368 0 4.155-.758 5.556-2.177 1.436-1.399 1.884-3.367 1.884-4.958 0-.49-.037-.944-.116-1.322h-7.324zm54.626 1.645c-.428-1.117-1.728-3.178-4.389-3.178-2.66 0-4.835 2.024-4.835 4.997 0 2.8 2.175 4.994 5.087 4.994 2.351 0 3.709-1.399 4.273-2.214l-1.748-1.136c-.585.832-1.378 1.382-2.525 1.382-1.146 0-1.963-.51-2.487-1.512l6.856-2.764-.232-.567v-.002zm-6.991 1.666a2.77 2.77 0 012.68-2.913c.895 0 1.653.434 1.905 1.06l-4.583 1.856-.002-.003zm-5.576 4.843h2.252V25.53h-2.252v14.682zm-3.691-8.57h-.078c-.504-.587-1.477-1.117-2.699-1.117-2.565 0-4.913 2.194-4.913 5.014 0 2.82 2.35 4.975 4.913 4.975 1.225 0 2.195-.53 2.699-1.137h.078v.72c0 1.911-1.048 2.932-2.74 2.932-1.377 0-2.234-.964-2.582-1.777l-1.962.795C94.48 43.373 95.978 45 98.465 45c2.64 0 4.875-1.514 4.875-5.203v-8.968h-2.136v.815-.003zm-2.583 6.906c-1.554 0-2.855-1.267-2.855-3.007 0-1.74 1.3-3.046 2.855-3.046s2.739 1.286 2.739 3.046c0 1.76-1.204 3.007-2.739 3.007zm29.396-13.015h-5.39v14.681h2.248v-5.561h3.142c2.494 0 4.943-1.76 4.943-4.56s-2.452-4.56-4.943-4.56zm.058 7.075h-3.2v-5.033h3.2a2.578 2.578 0 012.638 2.515 2.578 2.578 0 01-2.638 2.516m13.902-2.108c-1.627 0-3.315.7-4.013 2.245l1.998.813c.426-.813 1.222-1.078 2.056-1.078 1.164 0 2.345.68 2.366 1.888v.152c-.409-.226-1.28-.567-2.346-.567-2.152 0-4.344 1.15-4.344 3.306 0 1.966 1.766 3.23 3.742 3.23 1.514 0 2.345-.66 2.87-1.436h.078v1.134h2.171v-5.63c0-2.607-1.995-4.06-4.575-4.06m-.272 8.045c-.738 0-1.766-.358-1.766-1.246 0-1.134 1.28-1.566 2.386-1.566.987 0 1.453.208 2.056.49-.174 1.36-1.376 2.325-2.676 2.325m12.759-7.726l-2.58 6.366h-.078l-2.676-6.366h-2.424l4.014 8.897-2.288 4.947h2.346l6.185-13.844h-2.502.003zm-20.262 9.392h2.25V25.528h-2.25v14.681zM117.827 17.5H115.4v-6.332h2.309c.514 0 .933.069 1.257.206.327.134.568.315.722.544.153.225.23.477.23.756 0 .184-.036.373-.106.569-.071.196-.197.38-.38.55-.178.163-.429.288-.753.375.461.08.826.242 1.096.488.273.241.41.579.41 1.012 0 .413-.105.754-.317 1.025a1.9 1.9 0 01-.852.606c-.357.134-.753.2-1.189.2zm-.006-.776c.411 0 .736-.096.977-.287.244-.192.367-.459.367-.8 0-.204-.044-.384-.131-.538a.813.813 0 00-.423-.356c-.195-.088-.456-.131-.784-.131h-1.369v2.112h1.363zm-.15-2.819c.37 0 .672-.097.909-.293a.955.955 0 00.361-.781.886.886 0 00-.118-.444.847.847 0 00-.399-.344c-.182-.087-.431-.131-.746-.131h-1.22v1.993h1.213zM107.812 17.587c-.921 0-1.653-.294-2.196-.881-.544-.588-.815-1.381-.815-2.381 0-.996.271-1.788.815-2.375.543-.588 1.275-.882 2.196-.882.921 0 1.651.294 2.191.882.539.587.808 1.379.808 2.375 0 1-.269 1.793-.808 2.38-.54.588-1.27.882-2.191.882zm0-.869c.436 0 .788-.098 1.058-.293.274-.2.475-.48.604-.838.128-.358.193-.777.193-1.256a3.71 3.71 0 00-.193-1.25 1.727 1.727 0 00-.604-.844c-.27-.2-.622-.3-1.058-.3-.439 0-.796.1-1.07.3a1.72 1.72 0 00-.603.844 3.686 3.686 0 00-.193 1.25c0 .479.064.898.193 1.256.128.358.329.638.603.838.278.195.635.293 1.07.293zM103.395 17.499h-1.114v-2.963h-3.024V17.5h-1.108v-6.325h1.108v2.525h3.024v-2.525h1.114v6.325zM96.383 17.499h-1.114V12.01h-3.024V17.5h-1.107v-6.325h5.245v6.325zM86.239 19.643h-.821l1.15-2.513-2.6-5.956h.958c.174 0 .288.075.342.225l1.686 4c.071.183.127.367.168.55.054-.192.119-.377.193-.556l1.63-3.994c.08-.15.19-.225.33-.225h.878l-3.516 8.194a.43.43 0 01-.143.2.396.396 0 01-.255.075zM81.238 17.499H80.13V12.01h-2.42v-.837h5.948v.837h-2.42V17.5zM74.903 17.587c-.51 0-.977-.123-1.4-.369-.419-.25-.755-.616-1.008-1.1-.249-.487-.373-1.085-.373-1.793 0-.613.11-1.165.33-1.657.224-.491.556-.88.995-1.168.44-.288.988-.432 1.643-.432.838 0 1.529.273 2.072.82l-.292.405a.496.496 0 01-.1.107.257.257 0 01-.137.03c-.083 0-.18-.045-.292-.137a2.49 2.49 0 00-.442-.237c-.187-.083-.433-.125-.74-.125-.436 0-.795.102-1.077.306a1.824 1.824 0 00-.622.844c-.133.358-.2.773-.2 1.244 0 .537.08.983.237 1.337.158.354.374.62.647.8.278.175.596.263.952.263.237 0 .436-.025.598-.075a1.738 1.738 0 00.69-.382c.063-.05.118-.09.168-.118a.297.297 0 01.156-.05c.095 0 .166.035.211.106l.318.406a2.595 2.595 0 01-1.064.75c-.41.15-.834.225-1.27.225zM68.073 17.587c-.92 0-1.653-.294-2.196-.881-.544-.588-.816-1.381-.816-2.381 0-.996.272-1.788.816-2.375.543-.588 1.275-.882 2.196-.882.921 0 1.651.294 2.19.882.54.587.81 1.379.81 2.375 0 1-.27 1.793-.81 2.38-.539.588-1.269.882-2.19.882zm0-.869c.436 0 .788-.098 1.058-.293.274-.2.475-.48.603-.838.129-.358.193-.777.193-1.256 0-.475-.064-.892-.193-1.25a1.726 1.726 0 00-.603-.844c-.27-.2-.622-.3-1.058-.3-.44 0-.796.1-1.07.3-.274.2-.475.481-.604.844a3.696 3.696 0 00-.193 1.25c0 .479.065.898.193 1.256.129.358.33.638.604.838.278.195.635.293 1.07.293zM63.859 19.68h-.722V17.5H55.95v1.824c0 .217-.128.336-.385.356h-.722v-3.13h.908c.266-.105.519-.407.76-.907.236-.496.441-1.306.615-2.431.17-1.13.29-2.686.361-4.669h5.295v8.006h1.463v2.775c0 .217-.129.336-.386.356zm-2.29-3.13V9.492h-2.95c-.103 2.02-.281 3.588-.534 4.7-.254 1.113-.558 1.898-.915 2.356h4.399z" fill="#fff"/><g clip-path="url(#mclip1_1341_3048)"><path d="M19.096 8.358L37.47 18.969l-3.938 3.956L19.096 8.358zM15.29 7.5l16.865 16.875L15.291 41.25a2.42 2.42 0 01-1.446-2.215l.001-.095v.004V9.808l-.001-.092c0-.986.588-1.833 1.43-2.209l.016-.006-.002-.001zm27.89 14.898c.58.431.95 1.118.95 1.89v.091-.004a2.195 2.195 0 01-.88 1.973l-.007.004-3.938 2.24-4.264-4.217 4.266-4.285 3.873 2.308zM19.096 40.392l14.437-14.567 3.938 3.956-18.375 10.611z" fill="#fff"/></g></g><defs><clipPath id="mclip0_1341_3048"><path fill="#fff" d="M0 0h168v50H0z"/></clipPath><clipPath id="mclip1_1341_3048"><path fill="#fff" transform="translate(12.444 7.5)" d="M0 0h33.6v33.75H0z"/></clipPath></defs></svg><svg fill="none" viewBox="0 0 30 30" id="info-icon" xmlns="http://www.w3.org/2000/svg"><path d="M15 27.5c6.904 0 12.5-5.596 12.5-12.5S21.904 2.5 15 2.5 2.5 8.096 2.5 15 8.096 27.5 15 27.5zM15 20v-5M15 10h.012" stroke="currentColor" stroke-width="2" stroke-linecap="round" stroke-linejoin="round"/></svg><svg fill="none" viewBox="0 0 170 50" id="logo" xmlns="http://www.w3.org/2000/svg"><path d="M140.017 26.593V16.279h-7.697v16.768h21.623v-6.454h-13.926zM32.952 21.233h-8.954v-4.954h-7.696v16.768h7.696v-5.36h8.954v5.36h7.685V16.279h-7.685v4.954zM64.38 16.28h-9.362l4.46 7.697 5.239 9.07h9.362l-9.7-16.768zM45.26 33.047h8.965l4.786-8.256-4.494-7.768-9.257 16.024zM117.998 16.28h-9.35l4.448 7.697 5.252 9.07H127.709l-9.699-16.768h-.012zM98.879 33.047h8.977l4.774-8.256-4.483-7.768-9.268 16.024zM100.894 16.28h-9.362l-5.24 9.069-4.447 7.698h9.361l9.688-16.768zM81.04 16.28h-8.965l9.257 16.022 4.495-7.755-4.786-8.268z" fill="currentColor"/></svg><svg fill="none" viewBox="0 0 24 24" id="mileage" xmlns="http://www.w3.org/2000/svg"><path d="M22.2 12.9h-3m3 0c0-2.735-1.076-5.218-2.828-7.05M22.2 12.9a10.19 10.19 0 01-4.5 8.46M1.8 12.9h3m-3 0c0-2.735 1.076-5.218 2.829-7.05M1.8 12.9a10.19 10.19 0 004.5 8.46M12 2.85v3m7.372 0A10.17 10.17 0 0012 2.7a10.17 10.17 0 00-7.371 3.15m14.742 0L18.15 7.07M4.629 5.85L6.3 7.07M16 9.5L12 13" stroke="#626970" stroke-linecap="round" stroke-linejoin="round"/></svg><svg viewBox="0 0 50 50" id="ok" xmlns="http://www.w3.org/2000/svg"><rect width="50" height="50" rx="25"/><path fill-rule="evenodd" clip-rule="evenodd" d="M29.892 22.838a6.859 6.859 0 01-4.886 2.048 6.865 6.865 0 01-4.887-2.048 6.97 6.97 0 01-2.032-4.926c0-1.926.781-3.665 2.032-4.926a6.859 6.859 0 014.887-2.049c1.91 0 3.636.788 4.886 2.049a6.97 6.97 0 012.032 4.926 6.975 6.975 0 01-2.032 4.926zm-4.886-8.115a3.12 3.12 0 00-2.22.931 3.155 3.155 0 00-.923 2.237c0 .871.35 1.656.924 2.237a3.1 3.1 0 002.219.93c.864 0 1.642-.352 2.219-.93.576-.581.923-1.366.923-2.237s-.35-1.656-.923-2.237c-.577-.56-1.355-.931-2.22-.931zm7.269 10.184c-.104-.165-.33-.186-.493-.063-1.931 1.656-4.272 2.713-6.797 2.713-2.525 0-4.887-1.075-6.797-2.713-.143-.123-.348-.104-.472.063l-2.032 2.794c-.104.123-.062.332.062.434a14.375 14.375 0 005.77 2.836l-3.922 7.597c-.104.207.041.476.288.476h4.189a.32.32 0 00.308-.206l2.63-6.274 2.607 6.292a.362.362 0 00.31.206h4.188c.246 0 .39-.248.288-.476l-3.921-7.617c2.073-.498 4.066-1.429 5.769-2.836.142-.105.163-.29.062-.435l-2.032-2.794-.005.003z" fill="#fff"/></svg><svg fill="none" viewBox="0 0 24 24" id="palette" xmlns="http://www.w3.org/2000/svg"><path d="M2 12c0 5.523 4.477 10 10 10a3 3 0 003-3v-.5c0-.464 0-.697.026-.892a3 3 0 012.582-2.582c.195-.026.428-.026.892-.026h.5a3 3 0 003-3c0-5.523-4.477-10-10-10S2 6.477 2 12z" stroke="#626970" stroke-linecap="round" stroke-linejoin="round"/><path d="M7 13a1 1 0 100-2 1 1 0 000 2zM16 9a1 1 0 100-2 1 1 0 000 2zM10 8a1 1 0 100-2 1 1 0 000 2z" stroke="#626970" stroke-linecap="round" stroke-linejoin="round"/></svg><svg fill="none" viewBox="0 0 24 24" id="pin" xmlns="http://www.w3.org/2000/svg"><path d="M12 13a3 3 0 100-6 3 3 0 000 6z" stroke="currentColor" stroke-width="1.5" stroke-linecap="round" stroke-linejoin="round"/><path d="M12 22c4-4 8-7.582 8-12a8 8 0 10-16 0c0 4.418 4 8 8 12z" stroke="currentColor" stroke-width="1.5" stroke-linecap="round" stroke-linejoin="round"/></svg><svg fill="none" viewBox="0 0 17 16" id="plus-circle" xmlns="http://www.w3.org/2000/svg"><path d="M8.643 5.333v5.334M5.977 8h5.333m4 0A6.667 6.667 0 111.976 8 6.667 6.667 0 0115.31 8z" stroke="currentColor" stroke-linecap="round" stroke-linejoin="round"/></svg><svg fill="none" viewBox="0 0 60 60" id="sale-icon" xmlns="http://www.w3.org/2000/svg"><path d="M22.5 22.5h.025m14.975 15h.025M40 20L20 40m24.753-27.504a5.082 5.082 0 002.747 2.752l4.363 1.807a5.082 5.082 0 012.75 6.64l-1.806 4.36a5.074 5.074 0 00.002 3.89l1.803 4.36a5.081 5.081 0 01-2.751 6.641l-4.36 1.806A5.081 5.081 0 0044.75 47.5l-1.808 4.364a5.082 5.082 0 01-6.639 2.75l-4.36-1.806a5.081 5.081 0 00-3.888.003l-4.363 1.804a5.081 5.081 0 01-6.635-2.748l-1.808-4.364a5.081 5.081 0 00-2.747-2.752L8.14 42.943a5.082 5.082 0 01-2.751-6.637l1.806-4.36a5.082 5.082 0 00-.003-3.888l-1.804-4.366a5.082 5.082 0 012.751-6.642l4.36-1.806a5.082 5.082 0 002.75-2.744l1.807-4.363a5.081 5.081 0 016.64-2.75l4.36 1.806a5.081 5.081 0 003.888-.003l4.364-1.8a5.081 5.081 0 016.639 2.75l1.808 4.364-.001-.008zM23.75 22.5a1.25 1.25 0 11-2.5 0 1.25 1.25 0 012.5 0zm15 15a1.25 1.25 0 11-2.5 0 1.25 1.25 0 012.5 0z" stroke="currentColor" stroke-width="1.5" stroke-linecap="round" stroke-linejoin="round"/></svg><svg fill="none" viewBox="0 0 60 60" id="search-icon" xmlns="http://www.w3.org/2000/svg"><path d="M52.5 52.5L41.625 41.625M27.5 15C34.404 15 40 20.596 40 27.5m7.5 0c0 11.046-8.954 20-20 20s-20-8.954-20-20 8.954-20 20-20 20 8.954 20 20z" stroke="currentColor" stroke-width="1.5" stroke-linecap="round" stroke-linejoin="round"/></svg><svg fill="none" viewBox="0 0 60 60" id="settings-icon" xmlns="http://www.w3.org/2000/svg"><path d="M30 37.5a7.5 7.5 0 100-15 7.5 7.5 0 000 15z" stroke="currentColor" stroke-width="1.5" stroke-linecap="round" stroke-linejoin="round"/><path d="M46.818 36.818a3.75 3.75 0 00.75 4.137l.137.136a4.546 4.546 0 01-1.476 7.418 4.546 4.546 0 01-4.956-.986l-.137-.137a3.75 3.75 0 00-4.136-.75 3.75 3.75 0 00-2.273 3.432v.387a4.545 4.545 0 11-9.09 0v-.205a3.75 3.75 0 00-2.455-3.432 3.75 3.75 0 00-4.136.75l-.137.137a4.546 4.546 0 01-7.418-1.476 4.546 4.546 0 01.986-4.956l.137-.137a3.75 3.75 0 00.75-4.136 3.75 3.75 0 00-3.432-2.273h-.387a4.545 4.545 0 110-9.09h.205a3.75 3.75 0 003.432-2.455 3.75 3.75 0 00-.75-4.136l-.136-.137a4.546 4.546 0 011.475-7.418 4.546 4.546 0 014.956.986l.137.137a3.75 3.75 0 004.136.75h.182a3.75 3.75 0 002.273-3.432v-.387a4.545 4.545 0 119.09 0v.205a3.75 3.75 0 002.273 3.432 3.75 3.75 0 004.137-.75l.136-.136a4.546 4.546 0 017.418 1.475 4.546 4.546 0 01-.986 4.956l-.137.137a3.75 3.75 0 00-.75 4.136v.182a3.75 3.75 0 003.432 2.273h.387a4.545 4.545 0 110 9.09h-.205a3.75 3.75 0 00-3.432 2.273z" stroke="currentColor" stroke-width="1.5" stroke-linecap="round" stroke-linejoin="round"/></svg><svg viewBox="0 0 50 50" id="telegram" xmlns="http://www.w3.org/2000/svg"><g clip-path="url(#xclip0_1341_3013)"><rect width="50" height="50" rx="25"/><path fill-rule="evenodd" clip-rule="evenodd" d="M11.317 24.737c7.288-3.175 12.147-5.269 14.58-6.28 6.942-2.888 8.385-3.39 9.325-3.406.207-.004.669.048.968.29.253.206.323.483.356.678.034.194.075.638.042.984-.376 3.953-2.004 13.546-2.832 17.974-.35 1.873-1.04 2.501-1.709 2.563-1.452.133-2.554-.96-3.96-1.882-2.2-1.442-3.444-2.34-5.58-3.747-2.468-1.627-.867-2.52.54-3.982.367-.382 6.764-6.2 6.888-6.728.015-.066.03-.312-.117-.442-.146-.13-.362-.086-.517-.05-.22.05-3.736 2.373-10.545 6.97-.998.685-1.902 1.019-2.712 1.001-.892-.02-2.61-.505-3.886-.92-1.565-.509-2.81-.778-2.701-1.642.056-.45.676-.91 1.86-1.381z" fill="#fff"/></g><defs><clipPath id="xclip0_1341_3013"><path fill="#fff" d="M0 0h50v50H0z"/></clipPath></defs></svg><svg fill="none" viewBox="0 0 61 54" id="vector" xmlns="http://www.w3.org/2000/svg"><path d="M61 0H31.022L14.243 29.21 0 54h29.978L61 0z" fill="#00CABF"/></svg><svg viewBox="0 0 50 50" id="vkontakte" xmlns="http://www.w3.org/2000/svg"><rect width="50" height="50" rx="25"/><path d="M26.186 34.375c-9.075 0-14.252-6.159-14.467-16.406h4.546c.15 7.521 3.5 10.707 6.155 11.364V17.97h4.28v6.487c2.622-.28 5.376-3.236 6.305-6.487h4.28a12.449 12.449 0 01-2.05 4.69 12.591 12.591 0 01-3.773 3.488 13.086 13.086 0 014.301 3.39 12.927 12.927 0 012.518 4.838H33.57a8.104 8.104 0 00-2.54-3.958 8.235 8.235 0 00-4.328-1.905v5.863h-.515z" fill="#fff"/></svg></svg>